<?xml version="1.0" standalone="no"?>
<!DOCTYPE svg PUBLIC "-//W3C//DTD SVG 1.1//EN" "http://www.w3.org/Graphics/SVG/1.1/DTD/svg11.dtd" >
<svg xmlns="http://www.w3.org/2000/svg" width="100%" height="100%">
<metadata>
Created by FontXChange 20110222 at Mon Dec 12 20:37:52 2016
 By Steve Lombardi
 The digitally encoded machine readable software for producing the
 Typefaces licensed to you is copyrighted (c) 1985, 1987, 1988, 1994, 1999, 2002 Adobe Systems.
 All Rights Reserved. This software is the property of Adobe Systems
 Incorporated and its licensors, and may not be reproduced, used,
 displayed, modified, disclosed or transferred without the express
 written approval of Adobe.

 The digitally encoded machine readable outline data for producing the Typefaces
 provided as part of your laser printer is copyrighted (c) 1981, 1999, 2002 Heidelberger Druckmaschinen AG.
 All rights reserved. This data is the property of Heidelberger Druckmaschinen AG,
 and may not be reproduced, used, displayed, modified, disclosed or transferred
 without the express written approval of Heidelberger Druckmaschinen AG. 
</metadata>
<defs>
<font id="HelveticaLTStd-LightObl" horiz-adv-x="556" >
  <font-face 
    font-family="HelveticaLTStd"
    font-weight="300"
    font-style="italic"
    font-stretch="normal"
    units-per-em="1000"
    panose-1="2 11 4 3 2 2 2 2 2 4"
    ascent="718"
    descent="-282"
    x-height="518"
    cap-height="720"
    bbox="-167 -273 1110 979"
    underline-thickness="50"
    underline-position="-50"
    slope="-12"
    stemh="50"
    stemv="60"
    unicode-range="U+0020-FB02"
  />
<missing-glyph horiz-adv-x="648" 
d="M148 0v700h500v-700h-500zM398 395l170 255h-340zM428 350l170 -255v510zM228 50h340l-170 255zM198 605v-510l170 255z" />
    <glyph glyph-name="fi" unicode="fi" horiz-adv-x="500" 
d="M191 468h-79l11 50h79l18 82c17 82 58 134 138 134c18 0 34 -1 49 -4l-12 -55c-11 3 -23 5 -34 5c-62 0 -75 -51 -85 -98l-14 -64h98l-11 -50h-98l-99 -468h-60zM432 0h-60l110 518h60zM588 720l-19 -89h-66l19 89h66z" />
    <glyph glyph-name="fl" unicode="fl" horiz-adv-x="500" 
d="M191 468h-79l11 50h79l18 82c17 82 58 134 138 134c18 0 34 -1 49 -4l-12 -55c-11 3 -23 5 -34 5c-62 0 -75 -51 -85 -98l-14 -64h98l-11 -50h-98l-99 -468h-60zM432 0h-60l153 720h60z" />
    <glyph glyph-name=".notdef" horiz-adv-x="648" 
d="M148 0v700h500v-700h-500zM398 395l170 255h-340zM428 350l170 -255v510zM228 50h340l-170 255zM198 605v-510l170 255z" />
    <glyph glyph-name="space" unicode=" " horiz-adv-x="278" 
 />
    <glyph glyph-name="exclam" unicode="!" horiz-adv-x="333" 
d="M182 181l53 315l48 224h73l-48 -224l-81 -315h-45zM203 0h-73l19 88h73z" />
    <glyph glyph-name="quotedbl" unicode="&#x22;" horiz-adv-x="278" 
d="M162 494l48 226h52l-48 -226h-52zM273 494l48 226h52l-48 -226h-52z" />
    <glyph glyph-name="numbersign" unicode="#" 
d="M565 287l-13 -59h-111l-80 -228h-59l79 228h-137l-82 -228h-59l82 228h-110l13 59h119l51 140h-112l12 59h120l77 212h60l-77 -212h136l76 212h59l-76 -212h100l-12 -59h-108l-50 -140h102zM454 427h-136l-52 -140h138z" />
    <glyph glyph-name="dollar" unicode="$" 
d="M339 394l54 257c-75 0 -145 -51 -161 -125c-19 -88 37 -111 107 -132zM370 322l-61 -287c83 0 165 61 183 145c21 99 -40 124 -122 142zM298 -19l-16 -76h-46l16 76c-111 6 -177 62 -177 173c0 17 3 33 5 49h65c-19 -90 28 -163 117 -168l64 297
c-105 27 -186 65 -159 191c24 111 131 185 239 182l13 61h46l-13 -61c110 1 177 -63 157 -176h-65c15 73 -32 122 -104 122l-56 -266c124 -31 202 -65 170 -216c-25 -117 -150 -185 -256 -188z" />
    <glyph glyph-name="percent" unicode="%" horiz-adv-x="889" 
d="M728 331c91 0 147 -75 128 -165c-19 -91 -106 -166 -198 -166c-91 0 -150 75 -131 166c19 90 111 165 201 165zM715 274c-60 0 -118 -50 -131 -110c-12 -57 28 -107 85 -107c58 0 118 51 130 109c13 58 -26 108 -84 108zM511 532c-19 -91 -110 -165 -201 -165
s-149 75 -130 165s109 166 200 166s150 -75 131 -166zM322 424c58 0 120 50 132 108s-27 109 -86 109s-118 -50 -131 -109c-12 -59 27 -108 85 -108zM818 705l-550 -719h-52l550 719h52z" />
    <glyph glyph-name="ampersand" unicode="&#x26;" horiz-adv-x="667" 
d="M482 131l-153 244c-87 -37 -163 -107 -180 -185c-20 -95 37 -155 129 -155c77 0 144 39 204 96zM493 540c35 54 17 126 -58 126c-50 0 -103 -33 -115 -86c-9 -43 27 -104 47 -135c45 24 96 50 126 95zM392 400l136 -214c33 42 49 91 59 140h59c-17 -65 -42 -132 -90 -188
l88 -138h-81l-52 85c-78 -75 -153 -104 -249 -104c-125 0 -207 85 -180 214c23 108 119 180 220 223c-30 45 -56 98 -43 161c19 91 104 141 192 141c89 0 138 -63 121 -139c-20 -96 -95 -136 -180 -181z" />
    <glyph glyph-name="quoteright" unicode="&#x2019;" horiz-adv-x="222" 
d="M306 720l-25 -118c-12 -58 -51 -94 -96 -107l8 37c18 10 40 26 48 66l7 34h-34l19 88h73z" />
    <glyph glyph-name="parenleft" unicode="(" horiz-adv-x="333" 
d="M383 739h51c-124 -138 -217 -300 -252 -468c-36 -166 -8 -325 54 -462h-51c-77 152 -112 277 -71 467c39 183 130 319 269 463z" />
    <glyph glyph-name="parenright" unicode=")" horiz-adv-x="333" 
d="M66 -191h-51c125 138 217 300 253 468c35 166 8 325 -55 462h51c78 -152 112 -277 72 -467c-39 -183 -131 -319 -270 -463z" />
    <glyph glyph-name="asterisk" unicode="*" horiz-adv-x="389" 
d="M199 646l102 -43l25 117h42l-25 -117l123 42l6 -44l-122 -37l52 -106l-44 -24l-51 108l-100 -106l-30 27l99 101l-104 40z" />
    <glyph glyph-name="plus" unicode="+" horiz-adv-x="660" 
d="M360 280l46 220h60l-46 -220h220l-13 -60h-220l-47 -220h-60l47 220h-220l13 60h220z" />
    <glyph glyph-name="comma" unicode="," horiz-adv-x="278" 
d="M194 88l-25 -118c-13 -58 -51 -94 -96 -107l8 37c18 10 39 26 48 66l7 34h-34l19 88h73z" />
    <glyph glyph-name="hyphen" unicode="-" horiz-adv-x="333" 
d="M102 291h253l-13 -62h-253z" />
    <glyph glyph-name="period" unicode="." horiz-adv-x="278" 
d="M175 0h-73l19 88h73z" />
    <glyph glyph-name="slash" unicode="/" horiz-adv-x="278" 
d="M445 739l-411 -829h-56l411 829h56z" />
    <glyph glyph-name="zero" unicode="0" 
d="M526 347c32 152 37 304 -112 304c-140 0 -206 -155 -239 -311c-38 -181 -23 -300 112 -300c152 0 209 165 239 307zM428 705c209 0 195 -201 160 -365c-39 -187 -119 -354 -313 -354c-195 0 -204 166 -162 361c38 178 112 358 315 358z" />
    <glyph glyph-name="one" unicode="1" 
d="M302 0l111 524h-182l9 42c109 7 178 18 225 139h51l-150 -705h-64z" />
    <glyph glyph-name="two" unicode="2" 
d="M238 474h-68c29 139 139 231 278 231c142 0 198 -87 175 -195c-39 -187 -251 -234 -373 -314c-54 -35 -105 -75 -123 -142h393l-11 -54h-461c15 67 36 120 92 172c183 170 377 168 413 334c19 92 -38 145 -125 145c-92 0 -174 -82 -190 -177z" />
    <glyph glyph-name="three" unicode="3" 
d="M293 340l11 52c119 -1 208 27 231 135c19 87 -43 124 -124 124c-90 0 -164 -63 -183 -151h-64c14 63 46 114 102 158c52 40 112 47 170 47c111 0 189 -56 164 -174c-16 -73 -59 -128 -134 -157c96 -32 102 -109 89 -174c-25 -116 -127 -210 -273 -214
c-163 0 -224 54 -205 218h64c-22 -107 37 -164 141 -164c102 0 195 76 208 159c21 114 -71 150 -197 141z" />
    <glyph glyph-name="four" unicode="4" 
d="M358 0l37 174h-322l12 55l427 469h58l-100 -470h98l-11 -54h-98l-37 -174h-64zM486 602l-339 -374h259z" />
    <glyph glyph-name="five" unicode="5" 
d="M74 183h64c-7 -95 52 -143 144 -143c105 0 186 80 207 180c22 105 -30 179 -137 179c-63 0 -119 -22 -169 -73l-51 7l134 365h350l-11 -54h-296l-94 -237c62 36 100 46 164 46c129 0 205 -88 174 -233c-32 -148 -157 -234 -273 -234c-133 0 -226 51 -206 197z" />
    <glyph glyph-name="six" unicode="6" 
d="M616 532h-66c1 72 -34 119 -109 119c-173 0 -227 -186 -265 -319c51 54 105 110 208 110c142 0 206 -86 176 -227c-30 -142 -132 -229 -275 -229c-141 0 -228 88 -175 337c35 167 130 382 337 382c111 0 180 -60 169 -173zM370 388c-99 0 -176 -80 -196 -175
c-17 -79 8 -173 124 -173c119 0 180 92 198 177c23 109 -16 171 -126 171z" />
    <glyph glyph-name="seven" unicode="7" 
d="M194 634l13 64h449l-12 -60c-251 -228 -385 -500 -422 -638h-70c57 204 243 468 414 634h-372z" />
    <glyph glyph-name="eight" unicode="8" 
d="M352 345c-98 0 -181 -47 -203 -151c-18 -87 36 -154 143 -154c93 0 178 64 198 158c21 99 -44 147 -138 147zM414 651c-79 0 -152 -44 -170 -127c-18 -87 46 -125 124 -125c77 0 144 39 165 139c15 71 -22 113 -119 113zM248 379c-59 43 -84 70 -66 154
c21 97 128 176 238 172c108 0 202 -51 176 -172c-15 -73 -55 -125 -129 -158c71 -28 105 -93 88 -175c-30 -138 -144 -214 -294 -214c-102 0 -205 70 -176 208c18 84 76 154 163 185z" />
    <glyph glyph-name="nine" unicode="9" 
d="M86 155h65c-1 -75 35 -115 113 -115c167 0 229 186 262 313l-2 2c-58 -71 -129 -110 -213 -110c-132 0 -199 90 -170 227c29 133 123 233 277 233c190 0 213 -159 171 -356c-51 -239 -185 -363 -334 -363c-110 0 -182 54 -169 169zM406 651c-108 -2 -178 -71 -201 -181
c-23 -107 24 -171 127 -171c100 0 175 80 195 175c22 104 -22 175 -121 177z" />
    <glyph glyph-name="colon" unicode=":" horiz-adv-x="278" 
d="M175 0h-73l19 88h73zM261 404h-73l19 88h73z" />
    <glyph glyph-name="semicolon" unicode=";" horiz-adv-x="278" 
d="M194 88l-25 -118c-13 -58 -51 -94 -96 -107l8 37c18 10 39 26 48 66l7 34h-34l19 88h73zM261 404h-73l19 88h73z" />
    <glyph glyph-name="less" unicode="&#x3c;" horiz-adv-x="660" 
d="M213 255l379 -197l-13 -64l-450 235l11 53l547 223l-13 -64z" />
    <glyph glyph-name="equal" unicode="=" horiz-adv-x="660" 
d="M660 378l-12 -60h-500l12 60h500zM619 184l-13 -60h-500l13 60h500z" />
    <glyph glyph-name="greater" unicode="&#x3e;" horiz-adv-x="660" 
d="M640 282l-11 -53l-550 -235l13 64l463 197l-381 186l13 64z" />
    <glyph glyph-name="question" unicode="?" horiz-adv-x="500" 
d="M313 182h-58c14 73 31 131 94 186c71 61 161 114 177 188c15 72 -29 129 -128 129c-98 0 -172 -74 -189 -169h-61c18 133 133 223 263 223c136 0 202 -75 178 -188c-25 -116 -152 -158 -230 -250c-29 -35 -38 -79 -46 -119zM283 0h-73l19 88h73z" />
    <glyph glyph-name="at" unicode="@" horiz-adv-x="800" 
d="M719 167h59c-87 -116 -232 -186 -363 -186c-214 0 -343 171 -298 382c44 208 252 376 455 376c192 0 317 -133 278 -316c-34 -158 -188 -292 -295 -292c-35 0 -71 16 -75 52c-37 -31 -88 -50 -130 -50c-86 0 -124 68 -107 150c29 134 165 303 313 303c47 0 87 -23 98 -66
l24 46h67l-165 -302c-24 -44 -40 -81 0 -81c83 0 188 137 211 243c34 163 -77 263 -228 263c-185 0 -349 -152 -387 -333c-39 -181 70 -325 250 -325c103 0 215 50 293 136zM379 196c91 1 200 168 219 258c9 39 -12 73 -53 73c-106 0 -205 -148 -225 -239
c-10 -48 8 -92 59 -92z" />
    <glyph glyph-name="A" unicode="A" horiz-adv-x="667" 
d="M85 0h-70l436 720h77l123 -720h-70l-35 226h-328zM475 662l-222 -378h282z" />
    <glyph glyph-name="B" unicode="B" horiz-adv-x="667" 
d="M222 344l-61 -286h173c150 0 225 20 251 145c25 119 -54 141 -182 141h-181zM290 662l-56 -260h172c142 0 199 50 218 137c19 90 -28 123 -177 123h-157zM375 0h-294l153 720h260c169 0 221 -73 198 -181c-22 -100 -88 -145 -148 -155l-1 -2c96 -15 130 -84 110 -179
c-32 -150 -141 -203 -278 -203z" />
    <glyph glyph-name="C" unicode="C" horiz-adv-x="722" 
d="M771 511h-70c-2 123 -68 170 -191 170c-174 0 -281 -149 -317 -319c-34 -161 -10 -323 186 -323c124 0 219 84 270 198h71c-61 -139 -173 -256 -366 -256c-222 0 -273 175 -229 379c58 275 224 379 415 379c148 0 239 -79 231 -228z" />
    <glyph glyph-name="D" unicode="D" horiz-adv-x="722" 
d="M327 0h-246l153 720h246c80 0 154 -5 211 -54c80 -69 75 -209 55 -305c-20 -95 -64 -201 -145 -273c-82 -74 -179 -88 -274 -88zM290 662l-129 -604h163c61 0 115 4 176 33c107 49 157 172 178 270c22 105 23 220 -66 274c-38 23 -99 27 -159 27h-163z" />
    <glyph glyph-name="E" unicode="E" horiz-adv-x="611" 
d="M570 0h-489l153 720h479l-12 -58h-411l-56 -260h371l-12 -58h-371l-61 -286h421z" />
    <glyph glyph-name="F" unicode="F" 
d="M142 0h-68l153 720h464l-12 -58h-396l-56 -260h360l-12 -58h-360z" />
    <glyph glyph-name="G" unicode="G" horiz-adv-x="778" 
d="M697 314h-243l12 58h308l-79 -372h-58l26 123c-68 -86 -157 -142 -299 -142c-182 0 -288 127 -234 383c45 211 186 375 413 375c151 0 254 -74 253 -228h-70c-1 108 -83 170 -190 170c-190 0 -300 -140 -343 -344c-34 -159 32 -298 197 -298c78 0 177 33 244 126
c33 45 50 95 63 149z" />
    <glyph glyph-name="H" unicode="H" horiz-adv-x="722" 
d="M148 0h-68l153 720h68l-66 -309h426l66 309h68l-153 -720h-68l75 353h-426z" />
    <glyph glyph-name="I" unicode="I" horiz-adv-x="278" 
d="M173 0h-68l153 720h68z" />
    <glyph glyph-name="J" unicode="J" horiz-adv-x="500" 
d="M70 228h68c-20 -90 -35 -185 91 -185c93 0 139 55 160 156l111 521h68l-111 -523c-30 -139 -110 -216 -249 -216c-162 0 -165 119 -138 247z" />
    <glyph glyph-name="K" unicode="K" horiz-adv-x="667" 
d="M153 0h-68l153 720h68l-79 -373l448 373h77l-345 -287l242 -433h-83l-217 391l-137 -113z" />
    <glyph glyph-name="L" unicode="L" 
d="M535 0h-454l153 720h68l-141 -662h386z" />
    <glyph glyph-name="M" unicode="M" horiz-adv-x="833" 
d="M146 0h-68l153 720h104l101 -635h2l367 635h103l-153 -720h-68l136 642h-2l-372 -642h-64l-101 642h-2z" />
    <glyph glyph-name="N" unicode="N" horiz-adv-x="722" 
d="M563 0l-281 628h-2l-133 -628h-68l153 720h77l282 -629h2l134 629h68l-153 -720h-79z" />
    <glyph glyph-name="O" unicode="O" horiz-adv-x="778" 
d="M129 359c44 210 198 380 413 380c225 0 303 -169 258 -380c-44 -207 -194 -378 -416 -378s-299 171 -255 378zM397 39c187 0 300 152 335 320c43 200 -34 322 -200 322c-185 0 -299 -155 -335 -322c-36 -170 12 -320 200 -320z" />
    <glyph glyph-name="P" unicode="P" horiz-adv-x="611" 
d="M146 0h-68l153 720h263c187 0 215 -93 192 -201c-34 -161 -185 -201 -318 -201h-154zM226 376h156c127 0 211 26 237 148c20 90 -28 138 -156 138h-176z" />
    <glyph glyph-name="Q" unicode="Q" horiz-adv-x="778" 
d="M625 68l81 -74l-48 -46l-89 82c-55 -31 -119 -49 -190 -49c-222 0 -299 171 -255 378c43 200 189 380 413 380c202 0 310 -135 258 -380c-24 -116 -83 -221 -170 -291zM502 181l82 -74c73 58 122 152 143 252c46 215 -46 322 -200 322c-185 0 -299 -156 -335 -322
c-36 -171 12 -320 200 -320c50 0 95 12 133 32l-69 63z" />
    <glyph glyph-name="R" unicode="R" horiz-adv-x="667" 
d="M230 385h212c101 0 188 42 209 143c23 108 -55 134 -146 134h-216zM432 327h-214l-70 -327h-68l153 720h282c158 0 233 -56 205 -189c-19 -91 -64 -139 -155 -176c79 -29 65 -119 51 -195c-20 -109 -18 -139 -3 -153l-1 -7h-75c-9 25 -4 71 2 117c7 47 17 95 17 122
c0 78 -56 88 -124 88z" />
    <glyph glyph-name="S" unicode="S" horiz-adv-x="611" 
d="M89 215h66c-17 -129 59 -176 169 -176c129 0 198 70 215 149c47 223 -423 75 -363 358c21 100 124 193 285 193c162 0 222 -98 196 -215h-65c24 110 -51 157 -143 157c-138 0 -206 -85 -210 -159c-9 -186 428 -52 369 -331c-28 -132 -142 -210 -308 -210
c-150 0 -244 78 -211 234z" />
    <glyph glyph-name="T" unicode="T" 
d="M157 662l12 58h524l-12 -58h-228l-141 -662h-68l141 662h-228z" />
    <glyph glyph-name="U" unicode="U" horiz-adv-x="722" 
d="M140 271l95 449h68l-91 -429c-38 -178 10 -252 157 -252c155 0 229 82 265 252l91 429h68l-95 -449c-40 -187 -155 -290 -341 -290c-188 0 -257 106 -217 290z" />
    <glyph glyph-name="V" unicode="V" horiz-adv-x="611" 
d="M268 0l-97 720h71l81 -640l352 640h71l-403 -720h-75z" />
    <glyph glyph-name="W" unicode="W" horiz-adv-x="889" 
d="M635 720l31 -624h2l290 624h70l-342 -720h-75l-32 636h-2l-302 -636h-75l-33 720h68l22 -624h2l300 624h76z" />
    <glyph glyph-name="X" unicode="X" horiz-adv-x="611" 
d="M514 0l-142 318l-277 -318h-77l327 370l-164 350h79l133 -303l262 303h79l-310 -350l168 -370h-78z" />
    <glyph glyph-name="Y" unicode="Y" horiz-adv-x="611" 
d="M243 720l138 -347l291 347h79l-347 -406l-67 -314h-68l66 309l-170 411h78z" />
    <glyph glyph-name="Z" unicode="Z" horiz-adv-x="611" 
d="M579 0h-548l12 57l590 605h-422l12 58h506l-12 -57l-590 -605h464z" />
    <glyph glyph-name="bracketleft" unicode="[" horiz-adv-x="333" 
d="M239 -191h-189l198 930h191l-11 -50h-127l-176 -830h125z" />
    <glyph glyph-name="backslash" unicode="\" horiz-adv-x="278" 
d="M206 -90l-59 829h56l59 -829h-56z" />
    <glyph glyph-name="bracketright" unicode="]" horiz-adv-x="333" 
d="M399 739l-198 -930h-191l11 50h127l176 830h-125l11 50h189z" />
    <glyph glyph-name="asciicircum" unicode="^" horiz-adv-x="660" 
d="M183 245h-58l326 453h52l135 -453h-57l-118 392z" />
    <glyph glyph-name="underscore" unicode="_" horiz-adv-x="500" 
d="M-16 -75h500l-11 -50h-500z" />
    <glyph glyph-name="quoteleft" unicode="&#x2018;" horiz-adv-x="222" 
d="M174 495l25 118c13 58 51 94 96 107l-8 -37c-18 -10 -39 -26 -48 -66l-7 -34h34l-19 -88h-73z" />
    <glyph glyph-name="a" unicode="a" 
d="M452 191l17 81c-56 -21 -108 -25 -161 -29c-93 -7 -155 -40 -170 -110c-13 -63 36 -93 93 -93c95 0 198 46 221 151zM289 291l85 11c23 2 61 8 83 17s29 36 33 54c13 61 -13 105 -106 105c-83 0 -146 -27 -176 -117h-61c35 122 136 171 249 171c105 0 179 -41 154 -161
l-60 -282c-10 -47 0 -58 54 -40l-10 -47c-9 -3 -32 -10 -49 -10c-10 0 -17 1 -26 3c-39 6 -38 41 -32 77c-62 -56 -136 -86 -211 -86c-91 0 -163 49 -141 149c18 87 89 140 214 156z" />
    <glyph glyph-name="b" unicode="b" horiz-adv-x="611" 
d="M194 261c-26 -125 16 -221 129 -221c101 0 191 73 220 203c32 130 -3 235 -127 235c-109 0 -197 -100 -222 -217zM158 91l-19 -91h-60l153 720h60l-61 -285c52 63 133 97 206 97c158 0 204 -129 173 -274c-33 -153 -125 -272 -292 -272c-66 0 -137 37 -158 105h-2z" />
    <glyph glyph-name="c" unicode="c" 
d="M575 355h-61c-4 77 -47 123 -127 123c-123 0 -198 -112 -221 -220c-23 -109 4 -218 128 -218c89 0 156 53 188 139h64c-45 -115 -134 -193 -264 -193c-165 0 -213 119 -180 272c30 144 141 274 296 274c119 0 185 -57 177 -177z" />
    <glyph glyph-name="d" unicode="d" horiz-adv-x="611" 
d="M527 261c25 117 -19 217 -128 217c-124 0 -205 -105 -227 -235c-27 -130 33 -203 134 -203c113 0 195 96 221 221zM564 435l61 285h60l-153 -720h-60l19 91h-2c-49 -68 -136 -105 -202 -105c-167 0 -209 119 -176 272c31 145 131 274 289 274c73 0 140 -34 164 -97z" />
    <glyph glyph-name="e" unicode="e" 
d="M172 295h338c21 101 -17 183 -125 183c-106 0 -180 -85 -213 -183zM563 245h-402c-25 -112 16 -205 131 -205c78 0 148 43 182 119h67c-51 -98 -129 -173 -261 -173c-166 0 -213 118 -180 271c32 151 148 275 296 275c142 0 208 -101 167 -287z" />
    <glyph glyph-name="f" unicode="f" horiz-adv-x="278" 
d="M196 468h-77l11 50h77l18 82c17 82 58 134 138 134c18 0 34 -1 49 -4l-12 -55c-11 3 -23 5 -34 5c-62 0 -75 -51 -85 -98l-14 -64h100l-11 -50h-100l-99 -468h-60z" />
    <glyph glyph-name="g" unicode="g" horiz-adv-x="611" 
d="M527 257c26 125 -15 221 -128 221c-101 0 -192 -73 -221 -203c-32 -130 4 -235 128 -235c109 0 196 100 221 217zM563 427l19 91h60l-99 -468c-30 -139 -102 -262 -299 -262c-152 0 -197 87 -187 149h64c1 -78 63 -95 134 -95c164 0 212 122 235 241
c-52 -63 -133 -97 -206 -97c-158 0 -204 129 -173 274c33 153 125 272 292 272c66 0 137 -37 158 -105h2z" />
    <glyph glyph-name="h" unicode="h" 
d="M132 0h-60l153 720h60l-58 -274c59 51 113 86 185 86c63 0 117 -20 142 -74c17 -37 10 -76 1 -119l-72 -339h-60l72 338c20 93 -8 140 -104 140c-74 0 -136 -48 -166 -101c-19 -33 -26 -62 -34 -98z" />
    <glyph glyph-name="i" unicode="i" horiz-adv-x="222" 
d="M141 0h-60l110 518h60zM278 631h-66l19 89h66z" />
    <glyph glyph-name="j" unicode="j" horiz-adv-x="222" 
d="M198 518h60l-125 -587c-18 -88 -36 -135 -132 -135c-13 0 -26 1 -39 4l12 53c67 -9 86 16 98 70zM304 720l-19 -89h-66l19 89h66z" />
    <glyph glyph-name="k" unicode="k" horiz-adv-x="500" 
d="M128 0h-60l153 720h60l-95 -448l306 246h82l-234 -187l147 -331h-67l-133 289l-117 -93z" />
    <glyph glyph-name="l" unicode="l" horiz-adv-x="222" 
d="M141 0h-60l153 720h60z" />
    <glyph glyph-name="m" unicode="m" horiz-adv-x="833" 
d="M183 279l-59 -279h-60l110 518h60l-16 -78h2c43 59 112 92 179 92c96 0 121 -45 131 -100c48 67 116 100 190 100c141 0 140 -101 118 -205l-70 -327h-60l76 358c16 74 0 120 -85 120c-44 0 -91 -19 -130 -59c-33 -34 -55 -97 -64 -140l-59 -279h-60l76 358
c16 74 0 120 -85 120c-44 0 -91 -19 -130 -59c-33 -34 -55 -97 -64 -140z" />
    <glyph glyph-name="n" unicode="n" 
d="M191 279l-59 -279h-60l110 518h60l-15 -72c59 51 113 86 185 86c63 0 117 -20 142 -74c17 -37 10 -76 1 -119l-72 -339h-60l72 338c20 93 -8 140 -104 140c-74 0 -136 -48 -166 -101c-19 -33 -26 -62 -34 -98z" />
    <glyph glyph-name="o" unicode="o" 
d="M275 -14c-132 2 -220 92 -182 273c32 151 138 273 298 273c162 0 214 -121 182 -273c-35 -164 -153 -273 -298 -273zM509 259c25 122 -2 219 -129 219c-126 0 -199 -107 -223 -219c-27 -129 15 -219 130 -219c126 0 198 108 222 219z" />
    <glyph glyph-name="p" unicode="p" horiz-adv-x="611" 
d="M194 257c-25 -117 20 -217 129 -217c124 0 204 105 226 235c27 130 -32 203 -133 203c-113 0 -196 -96 -222 -221zM157 83l-61 -287h-60l153 722h60l-19 -91h2c49 68 136 105 202 105c167 0 209 -119 176 -272c-31 -145 -131 -274 -289 -274c-73 0 -140 34 -164 97z" />
    <glyph glyph-name="q" unicode="q" horiz-adv-x="611" 
d="M527 261c25 117 -19 217 -128 217c-124 0 -205 -105 -227 -235c-27 -130 33 -203 134 -203c113 0 195 96 221 221zM563 427l19 91h60l-153 -722h-60l61 287c-52 -63 -133 -97 -206 -97c-158 0 -204 129 -173 274c33 153 125 272 292 272c66 0 137 -37 158 -105h2z" />
    <glyph glyph-name="r" unicode="r" horiz-adv-x="333" 
d="M189 254l-54 -254h-60l110 518h60l-21 -97h2c51 83 106 111 193 111l-14 -65c-134 3 -191 -97 -216 -213z" />
    <glyph glyph-name="s" unicode="s" horiz-adv-x="500" 
d="M80 162h61c1 -89 40 -122 130 -122c87 0 137 46 148 96c32 150 -323 44 -279 248c18 86 98 148 213 148c112 0 175 -46 165 -163h-61c6 80 -41 109 -116 109c-76 0 -125 -36 -136 -89c-30 -141 320 -53 278 -252c-21 -99 -121 -151 -243 -151s-175 78 -160 176z" />
    <glyph glyph-name="t" unicode="t" horiz-adv-x="278" 
d="M264 47l-10 -49c-15 -3 -43 -12 -72 -12c-59 0 -86 26 -70 103l80 379h-73l11 50h73l31 144h60l-31 -144h97l-11 -50h-97l-75 -355c-11 -51 -13 -73 37 -73c16 0 33 3 50 7z" />
    <glyph glyph-name="u" unicode="u" 
d="M473 236l60 282h60l-110 -518h-60l15 72c-39 -36 -94 -86 -185 -86c-138 0 -166 83 -143 191l72 341h60l-72 -340c-19 -89 10 -138 104 -138c99 0 175 82 199 196z" />
    <glyph glyph-name="v" unicode="v" horiz-adv-x="500" 
d="M215 0l-88 518h65l74 -444l262 444h65l-311 -518h-67z" />
    <glyph glyph-name="w" unicode="w" horiz-adv-x="722" 
d="M506 518l21 -438l229 438h61l-278 -518h-64l-21 435h-2l-207 -435h-72l-48 518h60l40 -442l214 442h67z" />
    <glyph glyph-name="x" unicode="x" horiz-adv-x="500" 
d="M409 0l-109 224l-209 -224h-73l256 268l-130 250h74l99 -206l191 206h76l-240 -250l137 -268h-72z" />
    <glyph glyph-name="y" unicode="y" horiz-adv-x="500" 
d="M26 -197l12 56c15 -3 32 -6 49 -6c68 0 99 98 131 143l-90 522h67l72 -445l260 445h65l-302 -511c-76 -130 -125 -211 -208 -211c-21 0 -41 3 -56 7z" />
    <glyph glyph-name="z" unicode="z" horiz-adv-x="500" 
d="M467 0h-434l11 53l432 415h-321l11 50h398l-11 -53l-432 -415h357z" />
    <glyph glyph-name="braceleft" unicode="{" horiz-adv-x="333" 
d="M211 395l39 182c25 118 65 164 179 160c-59 -19 -94 -59 -107 -121l-41 -192c-16 -77 -40 -130 -114 -149v-2c63 -15 69 -60 53 -135l-43 -206c-15 -67 3 -103 62 -121l-1 -2c-118 -2 -143 42 -121 144l43 204c13 61 8 103 -57 116v2c79 21 94 54 108 120z" />
    <glyph glyph-name="bar" unicode="|" horiz-adv-x="402" 
d="M250 820h51v-1093h-51v1093z" />
    <glyph glyph-name="braceright" unicode="}" horiz-adv-x="333" 
d="M330 599l-43 -204c-13 -61 -8 -103 57 -116v-2c-79 -21 -94 -54 -108 -120l-38 -182c-25 -118 -65 -164 -179 -160c59 19 93 59 106 121l41 192c17 77 40 130 114 149v2c-63 15 -69 60 -53 135l44 206c14 67 -3 103 -62 121v2c118 2 143 -42 121 -144z" />
    <glyph glyph-name="asciitilde" unicode="~" horiz-adv-x="660" 
d="M290 324c36 0 74 -18 109 -36c36 -18 70 -36 96 -36c45 0 90 51 117 87l33 -34c-40 -54 -96 -109 -163 -109c-37 0 -95 28 -126 42c-24 11 -49 30 -78 30c-53 0 -97 -55 -128 -94l-23 47c38 43 92 103 163 103z" />
    <glyph glyph-name="exclamdown" unicode="&#xa1;" horiz-adv-x="333" 
d="M219 352h45l-53 -315l-48 -224h-73l48 224zM298 445h-73l18 87h73z" />
    <glyph glyph-name="cent" unicode="&#xa2;" 
d="M205 68l220 405c-13 4 -26 5 -40 5c-123 0 -198 -112 -221 -220c-16 -76 -8 -153 41 -190zM464 456l-222 -409c15 -4 32 -7 50 -7c89 0 156 53 188 139h64c-37 -103 -132 -193 -264 -193c-25 0 -46 3 -66 8l-74 -135h-47l81 150c-78 42 -98 136 -74 249
c37 176 160 274 296 274c21 0 41 -2 58 -5l66 120h48l-73 -134c56 -26 83 -78 78 -158h-61c-2 45 -19 80 -48 101z" />
    <glyph glyph-name="sterling" unicode="&#xa3;" 
d="M262 365h166l-9 -42h-151c1 -21 1 -46 -4 -68c-16 -75 -76 -138 -136 -188l2 -2c28 13 63 27 95 27c45 0 71 -10 95 -21s46 -21 79 -21c47 0 82 27 120 57l23 -51c-71 -54 -109 -70 -189 -70c-24 0 -48 11 -74 22c-27 11 -57 22 -94 22c-38 0 -75 -18 -112 -33l-22 58
c67 42 128 106 144 180c7 31 6 60 -2 88h-99l9 42h81c-10 37 -37 77 -20 157c22 105 114 183 262 183c132 0 211 -83 181 -217h-66c18 105 -31 163 -126 163c-80 0 -169 -43 -188 -132c-12 -60 18 -103 35 -154z" />
    <glyph glyph-name="fraction" unicode="&#x2044;" horiz-adv-x="167" 
d="M-116 -14h-51l597 719h51z" />
    <glyph glyph-name="yen" unicode="&#xa5;" 
d="M233 720l123 -347l276 347h73l-232 -286h111l-11 -54h-144l-52 -66l-9 -42h182l-12 -54h-182l-46 -218h-64l46 218h-182l12 54h182l9 42l-24 66h-144l11 54h111l-110 286h76z" />
    <glyph glyph-name="florin" unicode="&#x192;" 
d="M691 714l-31 -49c-9 6 -19 10 -30 13c-10 2 -24 3 -44 -1c-80 -13 -110 -140 -153 -229h115l-10 -48h-123l-135 -336c-58 -141 -127 -260 -254 -260c-18 0 -37 5 -52 11l31 57c17 -12 26 -13 49 -13c79 0 139 140 233 379l63 162h-113l10 48h121c51 111 107 286 257 286
c26 0 46 -7 66 -20z" />
    <glyph glyph-name="section" unicode="&#xa7;" 
d="M435 341l-150 106c-58 -22 -100 -55 -110 -104c-11 -51 28 -85 61 -111l154 -115c49 24 101 58 113 113c11 53 -33 87 -68 111zM303 102l-114 82c-55 40 -84 83 -70 151c14 67 73 119 138 144c-24 35 -39 66 -29 115c17 78 94 145 212 145c111 0 159 -69 135 -179h-54
c16 83 -12 125 -97 125c-63 0 -119 -31 -133 -97c-29 -137 305 -174 268 -348c-16 -77 -77 -117 -143 -156c11 -13 47 -50 34 -110c-21 -102 -112 -155 -208 -155c-113 0 -166 71 -148 182h61c-17 -82 16 -128 99 -128c56 0 118 32 131 94c14 64 -42 104 -82 135z" />
    <glyph glyph-name="currency" unicode="&#xa4;" 
d="M55 110l52 42c-22 47 -28 91 -16 148c12 59 36 103 80 151l-34 43l63 53l35 -43c52 34 109 49 165 49c55 0 97 -18 135 -49l53 43l41 -53l-52 -43c23 -49 28 -95 15 -156c-12 -56 -38 -97 -79 -143l34 -42l-63 -53l-35 43c-52 -33 -108 -50 -165 -50
c-55 0 -97 19 -135 50l-53 -43zM384 481c-103 2 -201 -77 -221 -181c-23 -97 43 -179 139 -179c100 0 199 80 220 182c21 95 -40 180 -138 178z" />
    <glyph glyph-name="quotesingle" unicode="'" horiz-adv-x="222" 
d="M190 494l48 226h52l-48 -226h-52z" />
    <glyph glyph-name="quotedblleft" unicode="&#x201c;" horiz-adv-x="389" 
d="M342 495l25 118c13 58 51 94 96 107l-8 -37c-18 -10 -39 -26 -48 -66l-7 -34h34l-19 -88h-73zM191 495l25 118c13 58 51 94 96 107l-8 -37c-18 -10 -39 -26 -48 -66l-7 -34h34l-19 -88h-73z" />
    <glyph glyph-name="guillemotleft" unicode="&#xab;" 
d="M345 228l14 63l170 113l-14 -63l-121 -82l87 -80l-13 -62zM161 228l14 63l170 113l-14 -63l-121 -82l87 -80l-13 -62z" />
    <glyph glyph-name="guilsinglleft" unicode="&#x2039;" horiz-adv-x="389" 
d="M169 228l14 63l170 113l-14 -63l-121 -82l87 -80l-13 -62z" />
    <glyph glyph-name="guilsinglright" unicode="&#x203a;" horiz-adv-x="389" 
d="M330 293l-13 -63l-170 -113l13 63l122 82l-87 80l13 62z" />
    <glyph glyph-name="endash" unicode="&#x2013;" horiz-adv-x="500" 
d="M560 282l-9 -44h-500l9 44h500z" />
    <glyph glyph-name="dagger" unicode="&#x2020;" 
d="M213 -166l128 602h-211l11 54h211l49 230h60l-49 -230h211l-11 -54h-211l-128 -602h-60z" />
    <glyph glyph-name="daggerdbl" unicode="&#x2021;" 
d="M271 109l71 334h-211l12 54h211l47 223h60l-47 -223h211l-12 -54h-211l-71 -334h211l-11 -54h-211l-47 -221h-60l47 221h-211l11 54h211z" />
    <glyph glyph-name="periodcentered" unicode="&#xb7;" horiz-adv-x="278" 
d="M224 398c26 0 43 -22 37 -48c-5 -26 -31 -49 -58 -49s-44 23 -39 49c6 26 35 48 60 48z" />
    <glyph glyph-name="paragraph" unicode="&#xb6;" horiz-adv-x="650" 
d="M227 -146l102 482c-102 -1 -173 87 -151 190c26 124 124 194 264 194h217l-184 -866h-60l170 799h-128l-170 -799h-60z" />
    <glyph glyph-name="bullet" unicode="&#x2022;" horiz-adv-x="500" 
d="M506 359c-21 -98 -119 -179 -219 -179c-98 0 -162 81 -141 179c22 100 120 181 218 181c100 0 164 -81 142 -181z" />
    <glyph glyph-name="quotesinglbase" unicode="&#x201a;" horiz-adv-x="222" 
d="M172 88l-25 -118c-13 -58 -51 -94 -96 -107l8 37c18 10 39 26 48 66l7 34h-34l19 88h73z" />
    <glyph glyph-name="quotedblbase" unicode="&#x201e;" horiz-adv-x="389" 
d="M322 88l-25 -118c-13 -58 -51 -94 -96 -107l8 37c18 10 39 26 48 66l7 34h-34l19 88h73zM171 88l-25 -118c-13 -58 -51 -94 -96 -107l8 37c18 10 39 26 48 66l7 34h-34l19 88h73z" />
    <glyph glyph-name="quotedblright" unicode="&#x201d;" horiz-adv-x="389" 
d="M456 720l-25 -118c-12 -58 -51 -94 -96 -107l8 37c18 10 40 26 48 66l7 34h-34l19 88h73zM305 720l-25 -118c-12 -58 -51 -94 -96 -107l8 37c18 10 40 26 48 66l7 34h-34l19 88h73z" />
    <glyph glyph-name="guillemotright" unicode="&#xbb;" 
d="M505 293l-13 -63l-170 -113l13 63l122 82l-87 80l13 62zM321 293l-13 -63l-170 -113l13 63l122 82l-87 80l13 62z" />
    <glyph glyph-name="ellipsis" unicode="&#x2026;" horiz-adv-x="1000" 
d="M204 0h-73l19 88h73zM537 0h-73l19 88h73zM870 0h-73l19 88h73z" />
    <glyph glyph-name="perthousand" unicode="&#x2030;" horiz-adv-x="1000" 
d="M900 299c82 0 134 -69 117 -150c-18 -82 -99 -149 -181 -149s-136 67 -118 149c17 81 101 150 182 150zM848 57c48 0 101 44 112 92c10 49 -24 93 -73 93c-50 0 -102 -43 -112 -93c-11 -49 24 -92 73 -92zM311 698c81 0 136 -67 119 -149c-18 -83 -100 -150 -182 -150
s-135 69 -117 150c17 81 99 149 180 149zM299 641c-50 0 -101 -43 -111 -92c-11 -49 23 -93 72 -93s102 44 113 93s-25 92 -74 92zM537 299c81 0 135 -68 118 -150c-18 -83 -100 -149 -182 -149s-135 68 -117 149c17 81 100 150 181 150zM485 57c48 0 102 43 113 92
c10 49 -24 93 -74 93s-101 -44 -111 -93c-11 -49 24 -92 72 -92zM136 -14h-53l560 719h53z" />
    <glyph glyph-name="questiondown" unicode="&#xbf;" horiz-adv-x="500" 
d="M404 16h61c-18 -133 -133 -223 -263 -223c-136 0 -202 75 -178 188c25 116 153 158 230 250c30 35 38 79 46 119h58c-14 -73 -30 -131 -94 -186c-71 -61 -161 -114 -177 -188c-15 -72 29 -129 128 -129c98 0 172 74 189 169zM330 532h73l-19 -88h-73z" />
    <glyph glyph-name="grave" unicode="`" horiz-adv-x="333" 
d="M305 574l-108 139h78l81 -139h-51z" />
    <glyph glyph-name="acute" unicode="&#xb4;" horiz-adv-x="333" 
d="M282 574h-51l141 139h77z" />
    <glyph glyph-name="circumflex" unicode="&#x2c6;" horiz-adv-x="333" 
d="M315 676l-104 -102h-65l144 139h67l83 -139h-65z" />
    <glyph glyph-name="tilde" unicode="&#x2dc;" horiz-adv-x="333" 
d="M177 586h-36c7 24 19 43 32 59c26 28 63 44 96 36c35 -7 79 -43 114 -43c29 0 44 26 54 50h38c-4 -13 -10 -26 -16 -38c-21 -32 -49 -60 -87 -60c-55 0 -90 45 -136 45c-30 0 -46 -24 -59 -49z" />
    <glyph glyph-name="macron" unicode="&#xaf;" horiz-adv-x="333" 
d="M153 612l10 45h296l-10 -45h-296z" />
    <glyph glyph-name="breve" unicode="&#x2d8;" horiz-adv-x="333" 
d="M178 706h39c-1 -55 33 -81 88 -81c56 0 98 25 124 81h37c-27 -84 -94 -126 -176 -126c-79 0 -123 47 -112 126z" />
    <glyph glyph-name="dotaccent" unicode="&#x2d9;" horiz-adv-x="333" 
d="M258 584l22 102h65l-22 -102h-65z" />
    <glyph glyph-name="dieresis" unicode="&#xa8;" horiz-adv-x="333" 
d="M184 584l22 102h65l-22 -102h-65zM343 584l22 102h65l-22 -102h-65z" />
    <glyph glyph-name="ring" unicode="&#x2da;" horiz-adv-x="333" 
d="M290 578c-54 0 -91 45 -79 99c11 53 68 100 121 100c54 0 89 -47 78 -100c-12 -54 -66 -99 -120 -99zM297 611c35 0 72 31 80 66c7 35 -16 67 -52 67s-73 -31 -81 -67s18 -66 53 -66z" />
    <glyph glyph-name="cedilla" unicode="&#xb8;" horiz-adv-x="333" 
d="M14 -188l21 30c20 -7 39 -15 61 -15c29 0 69 13 76 47c6 27 -16 39 -41 39c-15 0 -30 -4 -46 -8l-12 13l77 82h39l-60 -59c13 3 26 6 38 6c44 0 67 -27 66 -52c-3 -72 -68 -102 -132 -102c-31 0 -60 8 -87 19z" />
    <glyph glyph-name="hungarumlaut" unicode="&#x2dd;" horiz-adv-x="333" 
d="M282 574h-51l141 139h77zM444 574h-51l141 139h77z" />
    <glyph glyph-name="ogonek" unicode="&#x2db;" horiz-adv-x="333" 
d="M149 0h50v-2c-36 -16 -90 -47 -99 -87c-8 -39 21 -57 55 -57c15 0 29 3 44 9l-9 -44c-19 -6 -36 -9 -54 -9c-52 0 -96 30 -84 87c10 47 54 83 97 103z" />
    <glyph glyph-name="caron" unicode="&#x2c7;" horiz-adv-x="333" 
d="M301 611l104 102h65l-143 -139h-67l-84 139h65z" />
    <glyph glyph-name="emdash" unicode="&#x2014;" horiz-adv-x="1000" 
d="M1051 238h-1000l9 44h1000z" />
    <glyph glyph-name="AE" unicode="&#xc6;" horiz-adv-x="1000" 
d="M73 0h-68l466 720h630l-12 -58h-408l-56 -260h371l-12 -58h-371l-61 -286h420l-12 -58h-488l48 226h-303zM499 662l-242 -378h275l81 378h-114z" />
    <glyph glyph-name="ordfeminine" unicode="&#xaa;" horiz-adv-x="334" 
d="M359 534l10 49c-36 -13 -70 -15 -105 -18c-60 -4 -102 -24 -111 -66c-8 -38 26 -58 63 -58c62 0 129 30 143 93zM251 594l56 7c14 1 40 4 54 10c14 5 18 21 21 32c8 37 -10 66 -70 66c-54 0 -95 -19 -114 -73h-40c22 73 87 103 161 103c68 0 117 -25 101 -97l-35 -169
c-6 -28 0 -35 35 -24l-6 -28c-12 -4 -23 -8 -49 -5c-25 4 -25 25 -22 47c-39 -34 -87 -52 -136 -52c-59 0 -105 29 -93 89c12 53 57 84 137 94z" />
    <glyph glyph-name="Lslash" unicode="&#x141;" 
d="M535 0h-454l77 360l-90 -40l13 60l89 40l64 300h68l-53 -250l89 40l-12 -60l-90 -40l-75 -352h386z" />
    <glyph glyph-name="Oslash" unicode="&#xd8;" horiz-adv-x="778" 
d="M205 147l495 457c-29 42 -79 77 -171 77c-185 0 -299 -156 -335 -322c-17 -80 -14 -154 11 -212zM723 560l-493 -453c33 -42 87 -68 164 -68c187 0 299 151 335 320c15 70 16 143 -6 201zM753 652l103 95l31 -35l-108 -100c29 -43 44 -134 18 -253
c-44 -207 -194 -378 -416 -378c-91 0 -158 29 -202 79l-106 -97l-32 34l111 101c-40 67 -47 159 -26 261c46 213 203 380 413 380c90 0 165 -26 214 -87z" />
    <glyph glyph-name="OE" unicode="&#x152;" horiz-adv-x="1000" 
d="M594 221l59 277c25 119 -37 183 -162 183c-151 0 -260 -109 -305 -320c-40 -188 4 -322 176 -322c50 0 111 22 156 54c48 35 65 76 76 128zM550 0l15 72c-57 -48 -123 -91 -220 -91c-220 0 -269 182 -228 378c45 209 172 380 386 380c85 0 154 -19 184 -95l16 76h407
l-12 -58h-342l-56 -260h320l-12 -58h-320l-61 -286h352l-12 -58h-417z" />
    <glyph glyph-name="ordmasculine" unicode="&#xba;" horiz-adv-x="334" 
d="M254 411c-85 2 -144 56 -121 164c20 91 87 164 191 164c105 0 141 -73 121 -164c-21 -98 -97 -164 -191 -164zM172 575c-16 -77 14 -134 89 -134c82 0 131 68 145 134c16 73 -5 134 -88 134c-82 0 -132 -67 -146 -134z" />
    <glyph glyph-name="ae" unicode="&#xe6;" horiz-adv-x="889" 
d="M436 204l15 70c-104 -50 -290 -3 -318 -133c-14 -67 21 -101 87 -101c121 0 196 67 216 164zM520 295h326c21 99 -14 183 -119 183c-126 0 -192 -110 -207 -183zM282 295l58 6c105 11 122 23 131 64c18 88 -10 113 -102 113c-80 0 -141 -31 -169 -114h-62
c32 117 131 168 240 168c68 0 149 -16 163 -85c59 67 120 85 199 85c173 0 193 -128 159 -287h-390c-24 -112 6 -205 129 -205c79 0 140 46 176 120h63c-50 -111 -140 -174 -256 -174c-90 0 -145 36 -176 114c-49 -52 -113 -114 -242 -114c-93 0 -157 46 -136 146
c19 90 91 150 215 163z" />
    <glyph glyph-name="dotlessi" unicode="&#x131;" horiz-adv-x="222" 
d="M138 0h-60l110 518h60z" />
    <glyph glyph-name="lslash" unicode="&#x142;" horiz-adv-x="222" 
d="M141 0h-60l72 340l-79 -40l13 60l79 40l68 320h60l-57 -270l79 40l-13 -60l-79 -40z" />
    <glyph glyph-name="oslash" unicode="&#xf8;" 
d="M161 124l326 309c-14 21 -46 45 -105 45c-126 0 -199 -108 -223 -220c-13 -62 -9 -107 2 -134zM509 397l-329 -312c24 -30 67 -45 109 -45c126 0 198 107 222 218c11 51 14 100 -2 139zM134 41l-68 -64l-30 29l73 68c-27 49 -29 114 -14 184c32 151 138 274 298 274
c64 0 111 -19 143 -53l65 62l28 -31l-68 -65c25 -48 29 -114 14 -187c-34 -161 -145 -272 -298 -272c-74 0 -120 28 -143 55z" />
    <glyph glyph-name="oe" unicode="&#x153;" horiz-adv-x="944" 
d="M956 245h-393c-24 -74 -5 -205 132 -205c76 0 144 48 175 120h61c-48 -113 -141 -174 -250 -174c-98 0 -157 54 -178 126c-59 -84 -148 -126 -239 -126c-138 0 -208 106 -173 272c32 151 129 274 293 274c97 0 157 -38 182 -125c61 84 135 125 231 125
c181 0 191 -138 159 -287zM153 249c-25 -113 12 -209 128 -209c114 0 194 94 223 229c26 121 -16 209 -136 209c-108 0 -189 -88 -215 -229zM574 295h329c22 105 -9 183 -120 183c-102 0 -183 -84 -209 -183z" />
    <glyph glyph-name="germandbls" unicode="&#xdf;" horiz-adv-x="500" 
d="M291 375l10 50c90 2 164 32 184 124c16 75 -9 131 -98 131c-117 0 -143 -59 -162 -147l-113 -533h-60l116 544c26 123 101 190 227 190c115 0 178 -70 153 -186c-13 -64 -55 -108 -114 -145c69 -26 89 -104 73 -179c-33 -155 -130 -238 -262 -238c-13 0 -28 2 -36 5
l11 53c95 -18 192 36 217 155c27 126 -19 176 -146 176z" />
    <glyph glyph-name="onesuperior" unicode="&#xb9;" horiz-adv-x="333" 
d="M272 316l67 314h-118l5 26c71 4 116 10 145 83h33l-90 -423h-42z" />
    <glyph glyph-name="logicalnot" unicode="&#xac;" horiz-adv-x="660" 
d="M540 112l44 206h-436l12 60h500l-56 -266h-64z" />
    <glyph glyph-name="mu" unicode="&#xb5;" 
d="M473 236l60 282h60l-110 -518h-60l15 72c-39 -36 -94 -86 -185 -86c-56 0 -95 16 -117 32l-47 -222h-60l153 722h60l-72 -340c-19 -89 10 -138 104 -138c99 0 175 82 199 196z" />
    <glyph glyph-name="trademark" unicode="&#x2122;" horiz-adv-x="940" 
d="M1012 720l-89 -421h-52l80 377h-2l-225 -377h-34l-65 377h-2l-80 -377h-52l89 421h96l54 -311h2l184 311h96zM502 720l-8 -40h-134l-81 -381h-52l81 381h-134l8 40h320z" />
    <glyph glyph-name="Eth" unicode="&#xd0;" horiz-adv-x="722" 
d="M290 662l-54 -251h161l-12 -58h-161l-63 -295h163c61 0 115 4 176 33c107 49 157 172 178 270c22 105 23 220 -66 274c-38 23 -99 27 -159 27h-163zM168 411l66 309h246c80 0 154 -5 211 -54c80 -69 75 -209 55 -305c-20 -95 -64 -201 -145 -273
c-82 -74 -179 -88 -274 -88h-246l75 353h-71l12 58h71z" />
    <glyph glyph-name="onehalf" unicode="&#xbd;" horiz-adv-x="834" 
d="M176 -14h-51l597 719h51zM225 316l67 314h-118l5 26c71 4 116 10 145 83h33l-90 -423h-42zM608 284h-44c18 84 89 139 179 139c92 0 130 -52 116 -117c-24 -112 -161 -140 -239 -188c-34 -21 -67 -45 -78 -86h255l-7 -32h-299c9 40 21 72 57 103c118 102 244 101 266 201
c11 55 -27 87 -83 87c-60 0 -113 -50 -123 -107z" />
    <glyph glyph-name="plusminus" unicode="&#xb1;" horiz-adv-x="660" 
d="M370 330l36 170h60l-36 -170h220l-13 -60h-220l-36 -170h-60l36 170h-220l13 60h220zM80 0l13 60h500l-13 -60h-500z" />
    <glyph glyph-name="Thorn" unicode="&#xde;" horiz-adv-x="611" 
d="M146 0h-68l153 720h68l-32 -150h195c187 0 215 -93 192 -201c-34 -161 -185 -201 -318 -201h-154zM194 226h156c127 0 212 26 237 148c20 90 -28 138 -156 138h-176z" />
    <glyph glyph-name="onequarter" unicode="&#xbc;" horiz-adv-x="834" 
d="M689 0l22 104h-209l7 33l273 282h38l-60 -282h63l-7 -33h-63l-22 -104h-42zM766 361l-216 -224h168zM216 -14h-51l597 719h51zM225 316l67 314h-118l5 26c71 4 116 10 145 83h33l-90 -423h-42z" />
    <glyph glyph-name="divide" unicode="&#xf7;" horiz-adv-x="660" 
d="M127 220l13 60h500l-13 -60h-500zM367 0h-73l19 88h73zM455 412h-73l18 88h73z" />
    <glyph glyph-name="brokenbar" unicode="&#xa6;" horiz-adv-x="401" 
d="M250 738h50v-382h-50v382zM250 191h50v-381h-50v381z" />
    <glyph glyph-name="degree" unicode="&#xb0;" horiz-adv-x="400" 
d="M468 555c-18 -83 -100 -150 -182 -150c-83 0 -136 67 -118 150c16 82 99 150 182 150c82 0 135 -68 118 -150zM428 555c13 60 -27 110 -88 110c-60 0 -120 -50 -132 -110c-13 -61 26 -110 87 -110c60 0 120 49 133 110z" />
    <glyph glyph-name="thorn" unicode="&#xfe;" horiz-adv-x="611" 
d="M194 257c-25 -117 20 -217 129 -217c124 0 204 105 226 235c27 130 -32 203 -133 203c-113 0 -196 -96 -222 -221zM157 83l-61 -287h-60l196 924h60l-62 -293h2c49 68 136 105 202 105c167 0 209 -119 176 -272c-31 -145 -131 -274 -289 -274c-73 0 -140 34 -164 97z" />
    <glyph glyph-name="threequarters" unicode="&#xbe;" horiz-adv-x="834" 
d="M766 361l-216 -224h168zM689 0l22 104h-209l7 33l273 282h38l-60 -282h63l-7 -33h-63l-22 -104h-42zM273 520l6 31c77 0 135 16 148 81c11 52 -29 75 -81 75c-59 0 -107 -38 -118 -91h-41c8 38 27 68 64 95c34 24 72 28 110 28c72 0 124 -34 109 -104
c-9 -44 -37 -77 -85 -95c62 -19 67 -65 59 -104c-15 -70 -80 -126 -176 -128c-106 0 -146 32 -135 130h42c-14 -64 25 -98 93 -98c66 0 126 46 133 95c13 69 -47 90 -128 85zM256 -14h-51l597 719h51z" />
    <glyph glyph-name="twosuperior" unicode="&#xb2;" horiz-adv-x="333" 
d="M200 600h-44c17 84 88 139 178 139c92 0 130 -52 116 -117c-24 -112 -161 -140 -239 -188c-34 -21 -67 -45 -78 -86h255l-7 -32h-299c9 40 21 72 57 103c118 102 245 101 266 201c11 55 -27 87 -83 87c-60 0 -112 -50 -122 -107z" />
    <glyph glyph-name="registered" unicode="&#xae;" horiz-adv-x="800" 
d="M397 -19c-210 0 -344 170 -299 380c44 208 250 378 460 378c209 0 342 -170 298 -378c-45 -210 -250 -380 -459 -380zM408 31c184 0 348 144 388 330c39 184 -65 328 -249 328c-185 0 -350 -144 -389 -328c-40 -186 65 -330 250 -330zM535 344l87 -195h-62l-80 195h-95
l-41 -195h-52l90 423h185c112 0 141 -42 126 -112c-18 -83 -82 -114 -158 -116zM394 385h79c60 0 146 -10 164 76c14 66 -38 74 -90 74h-121z" />
    <glyph glyph-name="minus" unicode="&#x2212;" horiz-adv-x="660" 
d="M127 220l13 60h500l-13 -60h-500z" />
    <glyph glyph-name="eth" unicode="&#xf0;" 
d="M509 259c25 122 -2 219 -129 219c-126 0 -199 -107 -223 -219c-27 -129 15 -219 130 -219c126 0 198 108 222 219zM464 635l-71 -49l-33 24l76 52c-20 16 -43 30 -71 44l48 33c26 -12 49 -26 70 -45l64 45l32 -25l-69 -48c74 -88 101 -230 63 -407
c-35 -164 -153 -273 -298 -273c-132 2 -220 92 -182 273c29 136 128 273 294 273c66 0 96 -8 136 -46c-9 68 -27 114 -59 149z" />
    <glyph glyph-name="multiply" unicode="&#xd7;" horiz-adv-x="660" 
d="M377 216l-256 -210l-29 36l256 211l-166 211l44 36l167 -210l254 210l30 -36l-255 -211l165 -211l-45 -36z" />
    <glyph glyph-name="threesuperior" unicode="&#xb3;" horiz-adv-x="333" 
d="M244 520l6 31c77 0 135 16 148 81c11 52 -29 75 -81 75c-59 0 -107 -38 -118 -91h-41c8 38 27 68 64 95c34 24 72 28 110 28c72 0 124 -34 109 -104c-9 -44 -37 -77 -85 -95c62 -19 67 -65 59 -104c-15 -70 -80 -126 -176 -128c-106 0 -146 32 -135 130h42
c-14 -64 25 -98 93 -98c66 0 126 46 133 95c13 69 -47 90 -128 85z" />
    <glyph glyph-name="copyright" unicode="&#xa9;" horiz-adv-x="800" 
d="M397 -19c-210 0 -344 170 -299 380c44 208 250 378 460 378c209 0 342 -170 298 -378c-45 -210 -250 -380 -459 -380zM408 31c184 0 348 144 388 330c39 184 -65 328 -249 328c-185 0 -350 -144 -389 -328c-40 -186 65 -330 250 -330zM601 292h54
c-28 -91 -119 -147 -206 -147c-127 0 -190 95 -164 219c27 125 124 217 253 217c91 0 153 -52 148 -143h-54c2 60 -42 99 -102 99c-100 0 -166 -78 -186 -172c-20 -91 16 -176 114 -176c59 0 122 40 143 103z" />
    <glyph glyph-name="Aacute" unicode="&#xc1;" horiz-adv-x="667" 
d="M85 0h-70l436 720h77l123 -720h-70l-35 226h-328zM475 662l-222 -378h282zM492 776h-51l140 139h77z" />
    <glyph glyph-name="Acircumflex" unicode="&#xc2;" horiz-adv-x="667" 
d="M85 0h-70l436 720h77l123 -720h-70l-35 226h-328zM475 662l-222 -378h282zM525 878l-104 -102h-65l143 139h67l84 -139h-65z" />
    <glyph glyph-name="Adieresis" unicode="&#xc4;" horiz-adv-x="667" 
d="M85 0h-70l436 720h77l123 -720h-70l-35 226h-328zM475 662l-222 -378h282zM394 786l22 102h65l-22 -102h-65zM553 786l22 102h65l-22 -102h-65z" />
    <glyph glyph-name="Agrave" unicode="&#xc0;" horiz-adv-x="667" 
d="M85 0h-70l436 720h77l123 -720h-70l-35 226h-328zM475 662l-222 -378h282zM515 776l-109 139h78l82 -139h-51z" />
    <glyph glyph-name="Aring" unicode="&#xc5;" horiz-adv-x="667" 
d="M85 0h-70l436 720h77l123 -720h-70l-35 226h-328zM475 662l-222 -378h282zM520 780c-54 0 -91 45 -79 99c11 53 68 100 121 100c54 0 89 -47 78 -100c-12 -54 -66 -99 -120 -99zM527 813c35 0 72 31 80 66c7 35 -16 67 -52 67s-74 -31 -81 -67c-8 -36 18 -66 53 -66z" />
    <glyph glyph-name="Atilde" unicode="&#xc3;" horiz-adv-x="667" 
d="M85 0h-70l436 720h77l123 -720h-70l-35 226h-328zM475 662l-222 -378h282zM386 788h-36c8 24 20 43 33 59c26 28 63 44 96 36c35 -7 79 -43 114 -43c29 0 44 26 54 50h38c-4 -13 -10 -26 -16 -38c-21 -32 -49 -60 -87 -60c-55 0 -90 45 -136 45c-30 0 -46 -24 -60 -49z
" />
    <glyph glyph-name="Ccedilla" unicode="&#xc7;" horiz-adv-x="722" 
d="M771 511h-70c-2 123 -68 170 -191 170c-174 0 -281 -149 -317 -319c-34 -161 -10 -323 186 -323c124 0 219 84 270 198h71c-60 -136 -168 -251 -354 -255l-42 -41c13 3 26 6 38 6c44 0 67 -27 66 -52c-3 -72 -68 -102 -132 -102c-31 0 -60 8 -87 19l21 30
c20 -7 39 -15 61 -15c29 0 69 13 76 47c6 27 -16 39 -41 39c-15 0 -30 -4 -46 -8l-12 13l60 64c-200 13 -245 182 -203 378c58 275 224 379 415 379c148 0 239 -79 231 -228z" />
    <glyph glyph-name="Eacute" unicode="&#xc9;" horiz-adv-x="611" 
d="M570 0h-489l153 720h479l-12 -58h-411l-56 -260h371l-12 -58h-371l-61 -286h421zM464 776h-51l140 139h77z" />
    <glyph glyph-name="Ecircumflex" unicode="&#xca;" horiz-adv-x="611" 
d="M570 0h-489l153 720h479l-12 -58h-411l-56 -260h371l-12 -58h-371l-61 -286h421zM497 878l-104 -102h-65l143 139h67l84 -139h-65z" />
    <glyph glyph-name="Edieresis" unicode="&#xcb;" horiz-adv-x="611" 
d="M570 0h-489l153 720h479l-12 -58h-411l-56 -260h371l-12 -58h-371l-61 -286h421zM366 786l22 102h65l-22 -102h-65zM525 786l22 102h65l-22 -102h-65z" />
    <glyph glyph-name="Egrave" unicode="&#xc8;" horiz-adv-x="611" 
d="M570 0h-489l153 720h479l-12 -58h-411l-56 -260h371l-12 -58h-371l-61 -286h421zM487 776l-109 139h78l82 -139h-51z" />
    <glyph glyph-name="Iacute" unicode="&#xcd;" horiz-adv-x="278" 
d="M173 0h-68l153 720h68zM277 776h-51l140 139h77z" />
    <glyph glyph-name="Icircumflex" unicode="&#xce;" horiz-adv-x="278" 
d="M173 0h-68l153 720h68zM310 878l-104 -102h-65l143 139h67l84 -139h-65z" />
    <glyph glyph-name="Idieresis" unicode="&#xcf;" horiz-adv-x="278" 
d="M173 0h-68l153 720h68zM179 786l22 102h65l-22 -102h-65zM338 786l22 102h65l-22 -102h-65z" />
    <glyph glyph-name="Igrave" unicode="&#xcc;" horiz-adv-x="278" 
d="M173 0h-68l153 720h68zM321 776l-109 139h78l82 -139h-51z" />
    <glyph glyph-name="Ntilde" unicode="&#xd1;" horiz-adv-x="722" 
d="M563 0l-281 628h-2l-133 -628h-68l153 720h77l282 -629h2l134 629h68l-153 -720h-79zM414 788h-36c8 24 20 43 33 59c26 28 63 44 96 36c35 -7 79 -43 114 -43c29 0 44 26 54 50h38c-4 -13 -10 -26 -16 -38c-21 -32 -49 -60 -87 -60c-55 0 -90 45 -136 45
c-30 0 -46 -24 -60 -49z" />
    <glyph glyph-name="Oacute" unicode="&#xd3;" horiz-adv-x="778" 
d="M129 359c44 210 198 380 413 380c225 0 303 -169 258 -380c-44 -207 -194 -378 -416 -378s-299 171 -255 378zM397 39c187 0 300 152 335 320c43 200 -34 322 -200 322c-185 0 -299 -155 -335 -322c-36 -170 12 -320 200 -320zM548 776h-51l140 139h77z" />
    <glyph glyph-name="Ocircumflex" unicode="&#xd4;" horiz-adv-x="778" 
d="M129 359c44 210 198 380 413 380c225 0 303 -169 258 -380c-44 -207 -194 -378 -416 -378s-299 171 -255 378zM397 39c187 0 300 152 335 320c43 200 -34 322 -200 322c-185 0 -299 -155 -335 -322c-36 -170 12 -320 200 -320zM581 878l-104 -102h-65l143 139h67l84 -139
h-65z" />
    <glyph glyph-name="Odieresis" unicode="&#xd6;" horiz-adv-x="778" 
d="M129 359c44 210 198 380 413 380c225 0 303 -169 258 -380c-44 -207 -194 -378 -416 -378s-299 171 -255 378zM397 39c187 0 300 152 335 320c43 200 -34 322 -200 322c-185 0 -299 -155 -335 -322c-36 -170 12 -320 200 -320zM450 786l22 102h65l-22 -102h-65zM609 786
l22 102h65l-22 -102h-65z" />
    <glyph glyph-name="Ograve" unicode="&#xd2;" horiz-adv-x="778" 
d="M129 359c44 210 198 380 413 380c225 0 303 -169 258 -380c-44 -207 -194 -378 -416 -378s-299 171 -255 378zM397 39c187 0 300 152 335 320c43 200 -34 322 -200 322c-185 0 -299 -155 -335 -322c-36 -170 12 -320 200 -320zM571 776l-109 139h78l82 -139h-51z" />
    <glyph glyph-name="Otilde" unicode="&#xd5;" horiz-adv-x="778" 
d="M129 359c44 210 198 380 413 380c225 0 303 -169 258 -380c-44 -207 -194 -378 -416 -378s-299 171 -255 378zM397 39c187 0 300 152 335 320c43 200 -34 322 -200 322c-185 0 -299 -155 -335 -322c-36 -170 12 -320 200 -320zM442 788h-36c8 24 20 43 33 59
c26 28 63 44 96 36c35 -7 79 -43 114 -43c29 0 44 26 54 50h38c-4 -13 -10 -26 -16 -38c-21 -32 -49 -60 -87 -60c-55 0 -90 45 -136 45c-30 0 -46 -24 -60 -49z" />
    <glyph glyph-name="Scaron" unicode="&#x160;" horiz-adv-x="611" 
d="M89 215h66c-17 -129 59 -176 169 -176c129 0 198 70 215 149c47 223 -423 75 -363 358c21 100 124 193 285 193c162 0 222 -98 196 -215h-65c24 110 -51 157 -143 157c-138 0 -206 -85 -210 -159c-9 -186 428 -52 369 -331c-28 -132 -142 -210 -308 -210
c-150 0 -244 78 -211 234zM483 813l103 102h65l-142 -139h-67l-85 139h65z" />
    <glyph glyph-name="Uacute" unicode="&#xda;" horiz-adv-x="722" 
d="M140 271l95 449h68l-91 -429c-38 -178 10 -252 157 -252c155 0 229 82 265 252l91 429h68l-95 -449c-40 -187 -155 -290 -341 -290c-188 0 -257 106 -217 290zM520 776h-51l140 139h77z" />
    <glyph glyph-name="Ucircumflex" unicode="&#xdb;" horiz-adv-x="722" 
d="M140 271l95 449h68l-91 -429c-38 -178 10 -252 157 -252c155 0 229 82 265 252l91 429h68l-95 -449c-40 -187 -155 -290 -341 -290c-188 0 -257 106 -217 290zM553 878l-104 -102h-65l143 139h67l84 -139h-65z" />
    <glyph glyph-name="Udieresis" unicode="&#xdc;" horiz-adv-x="722" 
d="M140 271l95 449h68l-91 -429c-38 -178 10 -252 157 -252c155 0 229 82 265 252l91 429h68l-95 -449c-40 -187 -155 -290 -341 -290c-188 0 -257 106 -217 290zM422 786l22 102h65l-22 -102h-65zM581 786l22 102h65l-22 -102h-65z" />
    <glyph glyph-name="Ugrave" unicode="&#xd9;" horiz-adv-x="722" 
d="M140 271l95 449h68l-91 -429c-38 -178 10 -252 157 -252c155 0 229 82 265 252l91 429h68l-95 -449c-40 -187 -155 -290 -341 -290c-188 0 -257 106 -217 290zM543 776l-109 139h78l82 -139h-51z" />
    <glyph glyph-name="Yacute" unicode="&#xdd;" horiz-adv-x="611" 
d="M243 720l138 -347l291 347h79l-347 -406l-67 -314h-68l66 309l-170 411h78zM464 776h-51l140 139h77z" />
    <glyph glyph-name="Ydieresis" unicode="&#x178;" horiz-adv-x="611" 
d="M243 720l138 -347l291 347h79l-347 -406l-67 -314h-68l66 309l-170 411h78zM366 786l22 102h65l-22 -102h-65zM525 786l22 102h65l-22 -102h-65z" />
    <glyph glyph-name="Zcaron" unicode="&#x17d;" horiz-adv-x="611" 
d="M579 0h-548l12 57l590 605h-422l12 58h506l-12 -57l-590 -605h464zM483 813l103 102h65l-142 -139h-67l-85 139h65z" />
    <glyph glyph-name="aacute" unicode="&#xe1;" 
d="M452 191l17 81c-56 -21 -108 -25 -161 -29c-93 -7 -155 -40 -170 -110c-13 -63 36 -93 93 -93c95 0 198 46 221 151zM289 291l85 11c23 2 61 8 83 17s29 36 33 54c13 61 -13 105 -106 105c-83 0 -146 -27 -176 -117h-61c35 122 136 171 249 171c105 0 179 -41 154 -161
l-60 -282c-10 -47 0 -58 54 -40l-10 -47c-9 -3 -32 -10 -49 -10c-10 0 -17 1 -26 3c-39 6 -38 41 -32 77c-62 -56 -136 -86 -211 -86c-91 0 -163 49 -141 149c18 87 89 140 214 156zM394 574h-51l141 139h77z" />
    <glyph glyph-name="acircumflex" unicode="&#xe2;" 
d="M452 191l17 81c-56 -21 -108 -25 -161 -29c-93 -7 -155 -40 -170 -110c-13 -63 36 -93 93 -93c95 0 198 46 221 151zM289 291l85 11c23 2 61 8 83 17s29 36 33 54c13 61 -13 105 -106 105c-83 0 -146 -27 -176 -117h-61c35 122 136 171 249 171c105 0 179 -41 154 -161
l-60 -282c-10 -47 0 -58 54 -40l-10 -47c-9 -3 -32 -10 -49 -10c-10 0 -17 1 -26 3c-39 6 -38 41 -32 77c-62 -56 -136 -86 -211 -86c-91 0 -163 49 -141 149c18 87 89 140 214 156zM427 676l-104 -102h-65l144 139h67l83 -139h-65z" />
    <glyph glyph-name="adieresis" unicode="&#xe4;" 
d="M452 191l17 81c-56 -21 -108 -25 -161 -29c-93 -7 -155 -40 -170 -110c-13 -63 36 -93 93 -93c95 0 198 46 221 151zM289 291l85 11c23 2 61 8 83 17s29 36 33 54c13 61 -13 105 -106 105c-83 0 -146 -27 -176 -117h-61c35 122 136 171 249 171c105 0 179 -41 154 -161
l-60 -282c-10 -47 0 -58 54 -40l-10 -47c-9 -3 -32 -10 -49 -10c-10 0 -17 1 -26 3c-39 6 -38 41 -32 77c-62 -56 -136 -86 -211 -86c-91 0 -163 49 -141 149c18 87 89 140 214 156zM296 584l22 102h65l-22 -102h-65zM455 584l22 102h65l-22 -102h-65z" />
    <glyph glyph-name="agrave" unicode="&#xe0;" 
d="M452 191l17 81c-56 -21 -108 -25 -161 -29c-93 -7 -155 -40 -170 -110c-13 -63 36 -93 93 -93c95 0 198 46 221 151zM289 291l85 11c23 2 61 8 83 17s29 36 33 54c13 61 -13 105 -106 105c-83 0 -146 -27 -176 -117h-61c35 122 136 171 249 171c105 0 179 -41 154 -161
l-60 -282c-10 -47 0 -58 54 -40l-10 -47c-9 -3 -32 -10 -49 -10c-10 0 -17 1 -26 3c-39 6 -38 41 -32 77c-62 -56 -136 -86 -211 -86c-91 0 -163 49 -141 149c18 87 89 140 214 156zM417 574l-108 139h78l81 -139h-51z" />
    <glyph glyph-name="aring" unicode="&#xe5;" 
d="M452 191l17 81c-56 -21 -108 -25 -161 -29c-93 -7 -155 -40 -170 -110c-13 -63 36 -93 93 -93c95 0 198 46 221 151zM289 291l85 11c23 2 61 8 83 17s29 36 33 54c13 61 -13 105 -106 105c-83 0 -146 -27 -176 -117h-61c35 122 136 171 249 171c105 0 179 -41 154 -161
l-60 -282c-10 -47 0 -58 54 -40l-10 -47c-9 -3 -32 -10 -49 -10c-10 0 -17 1 -26 3c-39 6 -38 41 -32 77c-62 -56 -136 -86 -211 -86c-91 0 -163 49 -141 149c18 87 89 140 214 156zM402 578c-54 0 -91 45 -79 99c11 53 68 100 121 100c54 0 89 -47 78 -100
c-12 -54 -66 -99 -120 -99zM409 611c35 0 72 31 80 66c7 35 -16 67 -52 67s-73 -31 -81 -67s18 -66 53 -66z" />
    <glyph glyph-name="atilde" unicode="&#xe3;" 
d="M452 191l17 81c-56 -21 -108 -25 -161 -29c-93 -7 -155 -40 -170 -110c-13 -63 36 -93 93 -93c95 0 198 46 221 151zM289 291l85 11c23 2 61 8 83 17s29 36 33 54c13 61 -13 105 -106 105c-83 0 -146 -27 -176 -117h-61c35 122 136 171 249 171c105 0 179 -41 154 -161
l-60 -282c-10 -47 0 -58 54 -40l-10 -47c-9 -3 -32 -10 -49 -10c-10 0 -17 1 -26 3c-39 6 -38 41 -32 77c-62 -56 -136 -86 -211 -86c-91 0 -163 49 -141 149c18 87 89 140 214 156zM289 586h-36c7 24 19 43 32 59c26 28 63 44 96 36c35 -7 79 -43 114 -43c29 0 44 26 54 50
h38c-4 -13 -10 -26 -16 -38c-21 -32 -49 -60 -87 -60c-55 0 -90 45 -136 45c-30 0 -46 -24 -59 -49z" />
    <glyph glyph-name="ccedilla" unicode="&#xe7;" 
d="M575 355h-61c-4 77 -47 123 -127 123c-123 0 -198 -112 -221 -220c-23 -109 4 -218 128 -218c89 0 156 53 188 139h64c-45 -113 -131 -190 -259 -193l-46 -45c13 3 26 6 38 6c44 0 67 -27 66 -52c-3 -72 -68 -102 -132 -102c-31 0 -60 8 -87 19l21 30
c20 -7 39 -15 61 -15c29 0 69 13 76 47c6 27 -16 39 -41 39c-15 0 -30 -4 -46 -8l-12 13l67 71c-141 13 -181 126 -150 269c30 144 141 274 296 274c119 0 185 -57 177 -177z" />
    <glyph glyph-name="eacute" unicode="&#xe9;" 
d="M172 295h338c21 101 -17 183 -125 183c-106 0 -180 -85 -213 -183zM563 245h-402c-25 -112 16 -205 131 -205c78 0 148 43 182 119h67c-51 -98 -129 -173 -261 -173c-166 0 -213 118 -180 271c32 151 148 275 296 275c142 0 208 -101 167 -287zM394 574h-51l141 139h77z
" />
    <glyph glyph-name="ecircumflex" unicode="&#xea;" 
d="M172 295h338c21 101 -17 183 -125 183c-106 0 -180 -85 -213 -183zM563 245h-402c-25 -112 16 -205 131 -205c78 0 148 43 182 119h67c-51 -98 -129 -173 -261 -173c-166 0 -213 118 -180 271c32 151 148 275 296 275c142 0 208 -101 167 -287zM427 676l-104 -102h-65
l144 139h67l83 -139h-65z" />
    <glyph glyph-name="edieresis" unicode="&#xeb;" 
d="M172 295h338c21 101 -17 183 -125 183c-106 0 -180 -85 -213 -183zM563 245h-402c-25 -112 16 -205 131 -205c78 0 148 43 182 119h67c-51 -98 -129 -173 -261 -173c-166 0 -213 118 -180 271c32 151 148 275 296 275c142 0 208 -101 167 -287zM296 584l22 102h65
l-22 -102h-65zM455 584l22 102h65l-22 -102h-65z" />
    <glyph glyph-name="egrave" unicode="&#xe8;" 
d="M172 295h338c21 101 -17 183 -125 183c-106 0 -180 -85 -213 -183zM563 245h-402c-25 -112 16 -205 131 -205c78 0 148 43 182 119h67c-51 -98 -129 -173 -261 -173c-166 0 -213 118 -180 271c32 151 148 275 296 275c142 0 208 -101 167 -287zM417 574l-108 139h78
l81 -139h-51z" />
    <glyph glyph-name="iacute" unicode="&#xed;" horiz-adv-x="222" 
d="M138 0h-60l110 518h60zM206 574h-51l141 139h77z" />
    <glyph glyph-name="icircumflex" unicode="&#xee;" horiz-adv-x="222" 
d="M138 0h-60l110 518h60zM239 676l-104 -102h-65l144 139h67l83 -139h-65z" />
    <glyph glyph-name="idieresis" unicode="&#xef;" horiz-adv-x="222" 
d="M138 0h-60l110 518h60zM108 584l22 102h65l-22 -102h-65zM267 584l22 102h65l-22 -102h-65z" />
    <glyph glyph-name="igrave" unicode="&#xec;" horiz-adv-x="222" 
d="M138 0h-60l110 518h60zM250 574l-108 139h78l81 -139h-51z" />
    <glyph glyph-name="ntilde" unicode="&#xf1;" 
d="M191 279l-59 -279h-60l110 518h60l-15 -72c59 51 113 86 185 86c63 0 117 -20 142 -74c17 -37 10 -76 1 -119l-72 -339h-60l72 338c20 93 -8 140 -104 140c-74 0 -136 -48 -166 -101c-19 -33 -26 -62 -34 -98zM289 586h-36c7 24 19 43 32 59c26 28 63 44 96 36
c35 -7 79 -43 114 -43c29 0 44 26 54 50h38c-4 -13 -10 -26 -16 -38c-21 -32 -49 -60 -87 -60c-55 0 -90 45 -136 45c-30 0 -46 -24 -59 -49z" />
    <glyph glyph-name="oacute" unicode="&#xf3;" 
d="M275 -14c-132 2 -220 92 -182 273c32 151 138 273 298 273c162 0 214 -121 182 -273c-35 -164 -153 -273 -298 -273zM509 259c25 122 -2 219 -129 219c-126 0 -199 -107 -223 -219c-27 -129 15 -219 130 -219c126 0 198 108 222 219zM394 574h-51l141 139h77z" />
    <glyph glyph-name="ocircumflex" unicode="&#xf4;" 
d="M275 -14c-132 2 -220 92 -182 273c32 151 138 273 298 273c162 0 214 -121 182 -273c-35 -164 -153 -273 -298 -273zM509 259c25 122 -2 219 -129 219c-126 0 -199 -107 -223 -219c-27 -129 15 -219 130 -219c126 0 198 108 222 219zM427 676l-104 -102h-65l144 139h67
l83 -139h-65z" />
    <glyph glyph-name="odieresis" unicode="&#xf6;" 
d="M275 -14c-132 2 -220 92 -182 273c32 151 138 273 298 273c162 0 214 -121 182 -273c-35 -164 -153 -273 -298 -273zM509 259c25 122 -2 219 -129 219c-126 0 -199 -107 -223 -219c-27 -129 15 -219 130 -219c126 0 198 108 222 219zM296 584l22 102h65l-22 -102h-65z
M455 584l22 102h65l-22 -102h-65z" />
    <glyph glyph-name="ograve" unicode="&#xf2;" 
d="M275 -14c-132 2 -220 92 -182 273c32 151 138 273 298 273c162 0 214 -121 182 -273c-35 -164 -153 -273 -298 -273zM509 259c25 122 -2 219 -129 219c-126 0 -199 -107 -223 -219c-27 -129 15 -219 130 -219c126 0 198 108 222 219zM417 574l-108 139h78l81 -139h-51z
" />
    <glyph glyph-name="otilde" unicode="&#xf5;" 
d="M275 -14c-132 2 -220 92 -182 273c32 151 138 273 298 273c162 0 214 -121 182 -273c-35 -164 -153 -273 -298 -273zM509 259c25 122 -2 219 -129 219c-126 0 -199 -107 -223 -219c-27 -129 15 -219 130 -219c126 0 198 108 222 219zM289 586h-36c7 24 19 43 32 59
c26 28 63 44 96 36c35 -7 79 -43 114 -43c29 0 44 26 54 50h38c-4 -13 -10 -26 -16 -38c-21 -32 -49 -60 -87 -60c-55 0 -90 45 -136 45c-30 0 -46 -24 -59 -49z" />
    <glyph glyph-name="scaron" unicode="&#x161;" horiz-adv-x="500" 
d="M80 162h61c1 -89 40 -122 130 -122c87 0 137 46 148 96c32 150 -323 44 -279 248c18 86 98 148 213 148c112 0 175 -46 165 -163h-61c6 80 -41 109 -116 109c-76 0 -125 -36 -136 -89c-30 -141 320 -53 278 -252c-21 -99 -121 -151 -243 -151s-175 78 -160 176zM385 611
l104 102h65l-143 -139h-67l-84 139h65z" />
    <glyph glyph-name="uacute" unicode="&#xfa;" 
d="M473 236l60 282h60l-110 -518h-60l15 72c-39 -36 -94 -86 -185 -86c-138 0 -166 83 -143 191l72 341h60l-72 -340c-19 -89 10 -138 104 -138c99 0 175 82 199 196zM394 574h-51l141 139h77z" />
    <glyph glyph-name="ucircumflex" unicode="&#xfb;" 
d="M473 236l60 282h60l-110 -518h-60l15 72c-39 -36 -94 -86 -185 -86c-138 0 -166 83 -143 191l72 341h60l-72 -340c-19 -89 10 -138 104 -138c99 0 175 82 199 196zM427 676l-104 -102h-65l144 139h67l83 -139h-65z" />
    <glyph glyph-name="udieresis" unicode="&#xfc;" 
d="M473 236l60 282h60l-110 -518h-60l15 72c-39 -36 -94 -86 -185 -86c-138 0 -166 83 -143 191l72 341h60l-72 -340c-19 -89 10 -138 104 -138c99 0 175 82 199 196zM296 584l22 102h65l-22 -102h-65zM455 584l22 102h65l-22 -102h-65z" />
    <glyph glyph-name="ugrave" unicode="&#xf9;" 
d="M473 236l60 282h60l-110 -518h-60l15 72c-39 -36 -94 -86 -185 -86c-138 0 -166 83 -143 191l72 341h60l-72 -340c-19 -89 10 -138 104 -138c99 0 175 82 199 196zM417 574l-108 139h78l81 -139h-51z" />
    <glyph glyph-name="yacute" unicode="&#xfd;" horiz-adv-x="500" 
d="M26 -197l12 56c15 -3 32 -6 49 -6c68 0 99 98 131 143l-90 522h67l72 -445l260 445h65l-302 -511c-76 -130 -125 -211 -208 -211c-21 0 -41 3 -56 7zM366 574h-51l141 139h77z" />
    <glyph glyph-name="ydieresis" unicode="&#xff;" horiz-adv-x="500" 
d="M26 -197l12 56c15 -3 32 -6 49 -6c68 0 99 98 131 143l-90 522h67l72 -445l260 445h65l-302 -511c-76 -130 -125 -211 -208 -211c-21 0 -41 3 -56 7zM268 584l22 102h65l-22 -102h-65zM427 584l22 102h65l-22 -102h-65z" />
    <glyph glyph-name="zcaron" unicode="&#x17e;" horiz-adv-x="500" 
d="M467 0h-434l11 53l432 415h-321l11 50h398l-11 -53l-432 -415h357zM385 611l104 102h65l-143 -139h-67l-84 139h65z" />
    <glyph glyph-name="Delta" unicode="&#x2206;" horiz-adv-x="646" 
d="M33 0l9 43l400 669h65l115 -668l-9 -44h-580zM100 47h461l-71 410c-7 53 -27 140 -30 187h-4c-18 -38 -69 -118 -98 -171z" />
    <glyph glyph-name="Omega" unicode="&#x2126;" horiz-adv-x="725" 
d="M217 48l1 3c-61 64 -103 174 -73 317c43 202 204 336 371 336c175 0 259 -153 221 -332c-32 -150 -128 -265 -210 -321l-1 -3h156l-10 -48h-233l7 35c93 53 197 168 231 328c28 132 -18 292 -173 292c-147 0 -268 -132 -302 -294c-32 -150 21 -275 91 -326l-7 -35h-233
l10 48h154z" />
    <glyph glyph-name="uni03BC" unicode="&#x3bc;" 
d="M473 236l60 282h60l-110 -518h-60l15 72c-39 -36 -94 -86 -185 -86c-56 0 -95 16 -117 32l-47 -222h-60l153 722h60l-72 -340c-19 -89 10 -138 104 -138c99 0 175 82 199 196z" />
    <glyph glyph-name="pi" unicode="&#x3c0;" horiz-adv-x="561" 
d="M632 464h-84l-68 -318c-18 -86 -19 -121 -16 -146h-56c-6 15 -6 54 13 139l69 325h-196c-35 -135 -119 -373 -175 -464h-57c61 104 139 323 175 464c-68 0 -97 -5 -120 -13l-2 38c28 14 68 25 142 25h391z" />
    <glyph glyph-name="Euro" unicode="&#x20ac;" 
d="M69 236l32 54h61c2 18 5 36 9 55c4 15 6 29 10 43h-78l31 54h64c66 199 184 263 293 263c125 0 158 -68 169 -116l-44 -76c-3 99 -62 138 -137 138c-105 0 -175 -87 -217 -209h311l-32 -54h-296l-9 -42c-4 -19 -8 -38 -10 -56h259l-32 -54h-233c-6 -115 28 -196 130 -196
c68 0 134 42 190 109l-18 -84c-47 -47 -115 -79 -184 -79c-107 0 -195 61 -183 250h-86z" />
    <glyph glyph-name="afii61289" unicode="&#x2113;" horiz-adv-x="475" 
d="M449 136l25 -24c-58 -78 -128 -121 -205 -121c-113 0 -139 89 -121 190l3 13c-21 -14 -46 -32 -69 -49l-13 36c34 24 65 45 94 69l59 279c39 182 127 233 195 233c81 0 104 -70 86 -156c-27 -128 -138 -249 -289 -371l-6 -30c-25 -122 21 -168 81 -168
c66 0 126 54 160 99zM278 535l-52 -241c115 100 210 202 233 309c14 67 4 115 -52 115c-40 0 -100 -47 -129 -183z" />
    <glyph glyph-name="estimated" unicode="&#x212e;" horiz-adv-x="1016" 
d="M982 335h-647c-3 0 -5 -1 -5 -4v-196c0 -8 3 -15 8 -22c63 -65 149 -106 245 -106c103 0 194 47 257 119h58c-72 -84 -188 -139 -316 -139c-220 0 -399 160 -399 358c0 199 179 360 399 360c221 0 400 -161 400 -360v-10zM835 361v197c0 8 -3 17 -10 23
c-62 62 -148 102 -242 102c-95 0 -181 -41 -244 -105c-6 -6 -9 -15 -9 -25v-192c0 -2 2 -6 5 -6h496c3 0 4 4 4 6z" />
    <glyph glyph-name="partialdiff" unicode="&#x2202;" horiz-adv-x="537" 
d="M245 678l-13 41c38 26 94 54 172 54c124 0 220 -118 166 -374c-48 -226 -171 -409 -341 -409c-127 0 -163 113 -139 227c33 154 154 251 264 251c96 0 142 -70 151 -101h1c4 13 8 33 11 47c41 192 -25 311 -128 311c-62 0 -111 -25 -144 -47zM243 38h2
c102 0 194 124 240 266c-7 47 -50 117 -133 117c-87 0 -181 -90 -204 -202c-23 -105 14 -181 95 -181z" />
    <glyph glyph-name="product" unicode="&#x220f;" horiz-adv-x="839" 
d="M812 640h-113v-736h-56v736h-301v-736h-57v736h-112v52h639v-52z" />
    <glyph glyph-name="summation" unicode="&#x2211;" horiz-adv-x="697" 
d="M675 -96h-506v40l278 353l-265 355v40h478v-50h-396v-4l250 -334l-268 -341v-4h429v-55z" />
    <glyph glyph-name="uni2219" unicode="&#x2219;" horiz-adv-x="278" 
d="M224 398c26 0 43 -22 37 -48c-5 -26 -31 -49 -58 -49s-44 23 -39 49c6 26 35 48 60 48z" />
    <glyph glyph-name="radical" unicode="&#x221a;" horiz-adv-x="712" 
d="M711 821l-221 -972h-54l-164 468l-75 -28l-13 38l125 48l136 -388c6 -22 12 -49 16 -67h1c3 17 9 44 13 66l191 835h45z" />
    <glyph glyph-name="infinity" unicode="&#x221e;" horiz-adv-x="866" 
d="M815 289v-2c0 -93 -72 -153 -150 -153c-64 0 -113 43 -184 120c-53 -59 -108 -120 -190 -120c-80 0 -147 66 -147 150c0 88 65 154 153 154c76 0 134 -61 187 -122c55 61 106 122 189 122c86 0 142 -62 142 -149zM297 173h1c66 0 118 67 160 110c-45 54 -94 117 -168 117
c-66 0 -103 -56 -103 -117c1 -60 44 -110 110 -110zM668 400h-1c-69 0 -125 -77 -161 -113c68 -73 108 -114 163 -114c66 0 103 57 103 112c0 73 -45 115 -104 115z" />
    <glyph glyph-name="integral" unicode="&#x222b;" horiz-adv-x="492" 
d="M479 829l-12 -41c-8 6 -24 11 -37 11c-16 0 -38 -6 -51 -23c-27 -31 -36 -83 -36 -181c0 -153 13 -349 13 -506c0 -110 -22 -168 -45 -200c-20 -30 -54 -45 -89 -45c-24 0 -51 10 -62 17l12 42c9 -4 26 -12 46 -12c17 0 36 8 48 23c20 26 36 71 36 177
c0 157 -13 357 -13 510c0 106 13 167 51 206c24 25 55 36 86 36c20 0 43 -8 53 -14z" />
    <glyph glyph-name="approxequal" unicode="&#x2248;" horiz-adv-x="656" 
d="M582 421l25 -22c-25 -50 -63 -92 -126 -92c-41 0 -70 16 -119 43c-31 17 -62 34 -96 34c-47 0 -76 -35 -101 -75l-27 21c30 58 78 93 135 93c49 0 86 -28 114 -43c35 -18 59 -34 97 -34c42 0 69 25 98 75zM582 256l25 -22c-26 -50 -63 -91 -126 -91c-41 0 -70 16 -119 42
c-32 18 -62 34 -96 34c-48 0 -76 -36 -101 -75l-27 21c30 59 78 93 135 93c49 0 85 -27 114 -41c33 -19 59 -35 98 -35c41 0 68 24 97 74z" />
    <glyph glyph-name="notequal" unicode="&#x2260;" horiz-adv-x="676" 
d="M507 498l-47 -101h164v-41h-181l-70 -149h251v-40h-268l-56 -120l-32 16l48 104h-155v40h173l69 149h-242v41h259l54 117z" />
    <glyph glyph-name="lessequal" unicode="&#x2264;" horiz-adv-x="691" 
d="M636 94l-454 225v42l454 225v-49l-409 -195v-2l409 -197v-49zM639 10h-463v42h463v-42z" />
    <glyph glyph-name="greaterequal" unicode="&#x2265;" horiz-adv-x="691" 
d="M182 586l455 -225v-42l-454 -225v49l408 196v2l-409 196v49zM638 10h-461v42h461v-42z" />
    <glyph glyph-name="lozenge" unicode="&#x25ca;" horiz-adv-x="713" 
d="M658 346l-204 -390h-47l-202 390l204 391h47zM603 344l-152 293c-8 16 -15 37 -19 49h-2c-5 -14 -11 -31 -20 -49l-151 -290l153 -294c10 -20 16 -37 18 -48h4c3 12 11 34 18 48z" />
    <glyph glyph-name="uni00A0" unicode="&#xa0;" horiz-adv-x="278" 
 />
    <glyph glyph-name="uni00AD" unicode="&#xad;" horiz-adv-x="333" 
d="M102 291h253l-13 -62h-253z" />
    <glyph glyph-name="uni02C9" unicode="&#x2c9;" horiz-adv-x="333" 
d="M153 612l10 45h296l-10 -45h-296z" />
    <glyph glyph-name="uni03A9" unicode="&#x3a9;" horiz-adv-x="725" 
d="M217 48l1 3c-61 64 -103 174 -73 317c43 202 204 336 371 336c175 0 259 -153 221 -332c-32 -150 -128 -265 -210 -321l-1 -3h156l-10 -48h-233l7 35c93 53 197 168 231 328c28 132 -18 292 -173 292c-147 0 -268 -132 -302 -294c-32 -150 21 -275 91 -326l-7 -35h-233
l10 48h154z" />
    <glyph glyph-name="uni2215" unicode="&#x2215;" horiz-adv-x="167" 
d="M-116 -14h-51l597 719h51z" />
    </font>
</defs>
</svg>
