<svg xmlns="http://www.w3.org/2000/svg" width="427" height="85" viewBox="0 0 427 85">
  <g fill="none" fill-rule="evenodd">
    <polygon stroke="#221F20" stroke-width=".75" points=".375 84.375 426.025 84.375 426.025 .375 .375 .375"/>
    <g fill="#A21E26" transform="translate(12.41 14.156)">
      <path d="M140.661758,0 L116.988376,50.6254605 L93.7996176,0 L93.0491469,0 L65.0847458,60 L72.7698789,60 L79.8335421,44.0917169 L106.639551,44.0917169 L113.766843,60 L120.196834,60 L127.447025,44.0917169 L154.252163,44.0917169 L161.128426,60 L168.813559,60 L168.813559,59.9982662 L141.411357,0 L140.661758,0 Z M141.036558,14.8212041 L151.627695,38.1257856 L130.258021,38.1257856 L141.036558,14.8212041 Z M93.4248181,14.8212041 L104.015083,38.1257856 L82.6462816,38.1257856 L93.4248181,14.8212041 Z"/>
      <polygon points="78.645 0 59.746 40.994 44.932 0 43.9 0 28.617 41.646 9.189 0 0 0 27.867 60 28.899 60 44.37 19.193 58.621 60 59.746 60 87.458 0"/>
    </g>
    <path fill="#6C6E70" d="M224.711,58.345 C224.711,49.985 220.44,44.806 210.536,40.717 C203.448,37.809 201.903,37.627 200.086,35.446 C199.086,34.083 198.995,32.448 198.995,30.994 C198.995,26.814 202.448,23.179 207.628,23.27 C211.535,23.361 213.807,23.997 216.896,28.54 L222.439,25.178 C219.441,20.18 214.625,17 208.355,17 C199.086,17 192.453,23.27 192.453,31.539 C192.453,38.172 195.724,41.807 203.539,45.169 L210.717,48.259 C215.715,50.53 218.078,54.074 217.987,58.254 C217.805,64.161 213.171,68.25 207.173,68.25 C201.63,68.25 197.269,64.797 196.178,58.618 L189,59.708 C189.999,66.251 196.087,74.883 206.083,74.883 C216.26,74.883 224.711,67.25 224.711,58.345 L224.711,58.345 Z M264.328,23.724 L264.328,17.454 L230.344,17.454 L230.344,23.724 L243.156,23.724 L243.156,74.338 L250.425,74.338 L250.425,23.724 L264.328,23.724 Z M313.85,51.802 L313.85,17.454 L306.672,17.454 L306.672,52.348 C306.672,61.98 300.129,68.25 292.133,68.25 C283.955,68.25 278.412,62.343 278.412,51.984 L278.412,17.454 L270.87,17.454 L270.87,50.712 C270.87,65.978 278.321,75.156 291.497,75.156 C304.309,75.156 313.85,66.16 313.85,51.802 L313.85,51.802 Z M366.735,46.26 C366.735,29.631 355.195,17.454 337.93,17.454 L323.118,17.454 L323.118,74.338 L338.203,74.338 C355.104,74.338 366.735,61.889 366.735,46.26 L366.735,46.26 Z M359.466,45.714 C359.466,58.072 351.742,68.159 336.022,68.159 L330.388,68.159 L330.388,23.542 L336.385,23.542 C350.106,23.542 359.466,33.265 359.466,45.714 L359.466,45.714 Z M410.534,17.454 L402.356,17.454 L388.634,43.079 L375.549,17.454 L367.371,17.454 L385,49.894 L385,74.338 L392.451,74.338 L392.451,49.349 L410.534,17.454 Z"/>
  </g>
</svg>
