<svg xmlns="http://www.w3.org/2000/svg" width="392" height="85" viewBox="0 0 392 85">
  <g fill="none" fill-rule="evenodd">
    <path fill="#6C6E70" d="M239.765,15.7818 L232.496,15.7818 L232.496,57.9448 L189.697,12.3288 L189.697,72.6658 L196.966,72.6658 L196.966,31.4108 L239.765,75.8458 L239.765,15.7818 Z M304.462,43.9508 C304.462,27.7768 291.105,14.6918 274.839,14.6918 C258.846,14.6918 245.671,27.9578 245.671,44.1328 C245.671,60.6708 258.21,73.3018 274.839,73.3018 L276.202,73.3018 C291.65,73.3018 304.462,59.3988 304.462,43.9508 Z M297.011,44.2238 C297.011,57.0358 286.198,66.1228 275.112,66.1228 C262.299,66.1228 252.94,56.1278 252.94,44.8598 C252.94,32.1378 261.845,22.1428 275.021,22.1428 C287.924,22.1428 297.011,32.4108 297.011,44.2238 Z M379.246,15.9638 L370.705,15.9638 L355.802,55.4908 L341.445,15.5088 L340.446,15.5088 L325.634,56.1278 L310.096,15.8728 L301.19,15.8728 L324.907,74.0288 L325.907,74.0288 L340.9,34.2278 L354.712,74.0288 L355.802,74.0288 L379.246,15.9638 Z"/>
    <polygon stroke="#221F20" stroke-width=".75" points=".375 84.375 391.625 84.375 391.625 .375 .375 .375"/>
    <g fill="#A21E26" transform="translate(12 13)">
      <path d="M140.661758,0 L116.988376,50.6254605 L93.7996176,0 L93.0491469,0 L65.0847458,60 L72.7698789,60 L79.8335421,44.0917169 L106.639551,44.0917169 L113.766843,60 L120.196834,60 L127.447025,44.0917169 L154.252163,44.0917169 L161.128426,60 L168.813559,60 L168.813559,59.9982662 L141.411357,0 L140.661758,0 Z M141.036558,14.8212041 L151.627695,38.1257856 L130.258021,38.1257856 L141.036558,14.8212041 Z M93.4248181,14.8212041 L104.015083,38.1257856 L82.6462816,38.1257856 L93.4248181,14.8212041 Z"/>
      <polygon points="78.645 0 59.746 40.994 44.932 0 43.9 0 28.617 41.646 9.189 0 0 0 27.867 60 28.899 60 44.37 19.193 58.621 60 59.746 60 87.458 0"/>
    </g>
  </g>
</svg>
